0
SECTION
2
HEADER
9
$INSUNITS
70
4
9
$ACADVER
1
AC1014
9
$HANDSEED
5
FFFF
0
ENDSEC
0
SECTION
2
TABLES
0
TABLE
2
VPORT
5
8
100
AcDbSymbolTable
0
ENDTAB
0
TABLE
2
LTYPE
5
5
100
AcDbSymbolTable
0
LTYPE
5
14
100
AcDbSymbolTableRecord
100
AcDbLinetypeTableRecord
2
BYBLOCK
70
0
0
LTYPE
5
15
100
AcDbSymbolTableRecord
100
AcDbLinetypeTableRecord
2
BYLAYER
70
0
0
ENDTAB
0
TABLE
2
LAYER
5
2
100
AcDbSymbolTable
70
2
0
LAYER
5
50
100
AcDbSymbolTableRecord
100
AcDbLayerTableRecord
2
0
70
0
6
CONTINUOUS
0
ENDTAB
0
TABLE
2
STYLE
5
3
100
AcDbSymbolTable
70
1
0
STYLE
5
11
100
AcDbSymbolTableRecord
100
AcDbTextStyleTableRecord
2
STANDARD
70
0
0
ENDTAB
0
TABLE
2
VIEW
5
6
100
AcDbSymbolTable
70
0
0
ENDTAB
0
TABLE
2
UCS
5
7
100
AcDbSymbolTable
70
0
0
ENDTAB
0
TABLE
2
APPID
5
9
100
AcDbSymbolTable
70
2
0
APPID
5
12
100
AcDbSymbolTableRecord
100
AcDbRegAppTableRecord
2
ACAD
70
0
0
ENDTAB
0
TABLE
2
DIMSTYLE
5
A
100
AcDbSymbolTable
70
1
0
ENDTAB
0
TABLE
2
BLOCK_RECORD
5
1
100
AcDbSymbolTable
70
1
0
BLOCK_RECORD
5
1F
100
AcDbSymbolTableRecord
100
AcDbBlockTableRecord
2
*MODEL_SPACE
0
BLOCK_RECORD
5
1B
100
AcDbSymbolTableRecord
100
AcDbBlockTableRecord
2
*PAPER_SPACE
0
ENDTAB
0
ENDSEC
0
SECTION
2
BLOCKS
0
BLOCK
5
20
100
AcDbEntity
100
AcDbBlockBegin
2
*MODEL_SPACE
0
ENDBLK
5
21
100
AcDbEntity
100
AcDbBlockEnd
0
BLOCK
5
1C
100
AcDbEntity
100
AcDbBlockBegin
2
*PAPER_SPACE
0
ENDBLK
5
1D
100
AcDbEntity
100
AcDbBlockEnd
0
ENDSEC
0
SECTION
2
ENTITIES
0
LWPOLYLINE
5
100
100
AcDbEntity
8
0
100
AcDbPolyline
90
8
70
1
43
0.0
10
-490
20
446.35000000000002
42
-0.41421356237309503
10
-485
20
451.35000000000002
10
-5
20
451.35000000000002
42
-0.41421356237309503
10
1.1093356479670479e-29
20
446.35000000000002
10
0
20
11.350000000000051
42
-0.41421356237309503
10
-5
20
6.3500000000000512
10
-485
20
6.3500000000000512
42
-0.41421356237309503
10
-490
20
11.350000000000051
0
CIRCLE
5
101
100
AcDbEntity
8
0
100
AcDbCircle
10
-147.5
20
443.85000000000002
30
0
40
1.7500000000000102
0
CIRCLE
5
102
100
AcDbEntity
8
0
100
AcDbCircle
10
-482.5
20
315.10000000000002
30
0
40
1.7500000000000402
0
CIRCLE
5
103
100
AcDbEntity
8
0
100
AcDbCircle
10
-342.5
20
443.85000000000002
30
0
40
1.7499999999999702
0
CIRCLE
5
104
100
AcDbEntity
8
0
100
AcDbCircle
10
-7.5
20
228.85000000000005
30
0
40
1.7499999999999902
0
CIRCLE
5
105
100
AcDbEntity
8
0
100
AcDbCircle
10
-342.5
20
13.850000000000051
30
0
40
1.7500000000000402
0
CIRCLE
5
106
100
AcDbEntity
8
0
100
AcDbCircle
10
-440
20
443.85000000000002
30
0
40
1.7499999999999702
0
CIRCLE
5
107
100
AcDbEntity
8
0
100
AcDbCircle
10
-245
20
443.85000000000002
30
0
40
1.7500000000000102
0
CIRCLE
5
108
100
AcDbEntity
8
0
100
AcDbCircle
10
-7.5
20
56.350000000000051
30
0
40
1.7500000000000002
0
CIRCLE
5
109
100
AcDbEntity
8
0
100
AcDbCircle
10
-482.5
20
228.85000000000005
30
0
40
1.7500000000000402
0
CIRCLE
5
110
100
AcDbEntity
8
0
100
AcDbCircle
10
-482.5
20
401.34999999999985
30
0
40
1.7500000000000402
0
CIRCLE
5
111
100
AcDbEntity
8
0
100
AcDbCircle
10
-482.5
20
56.350000000000051
30
0
40
1.7500000000000402
0
CIRCLE
5
112
100
AcDbEntity
8
0
100
AcDbCircle
10
-482.5
20
142.60000000000005
30
0
40
1.7499999999999702
0
CIRCLE
5
113
100
AcDbEntity
8
0
100
AcDbCircle
10
-440
20
13.850000000000051
30
0
40
1.7500000000000402
0
CIRCLE
5
114
100
AcDbEntity
8
0
100
AcDbCircle
10
-50
20
443.85000000000002
30
0
40
1.7500000000000102
0
CIRCLE
5
115
100
AcDbEntity
8
0
100
AcDbCircle
10
-7.5
20
142.60000000000005
30
0
40
1.7499999999999802
0
CIRCLE
5
116
100
AcDbEntity
8
0
100
AcDbCircle
10
-7.5
20
401.35000000000002
30
0
40
1.7500000000000002
0
CIRCLE
5
117
100
AcDbEntity
8
0
100
AcDbCircle
10
-7.5
20
315.10000000000002
30
0
40
1.7500000000000002
0
CIRCLE
5
118
100
AcDbEntity
8
0
100
AcDbCircle
10
-50
20
13.850000000000051
30
0
40
1.7500000000000002
0
CIRCLE
5
119
100
AcDbEntity
8
0
100
AcDbCircle
10
-147.5
20
13.850000000000051
30
0
40
1.7499999999999902
0
CIRCLE
5
120
100
AcDbEntity
8
0
100
AcDbCircle
10
-245
20
13.850000000000051
30
0
40
1.7500000000000102
0
LINE
5
121
100
AcDbEntity
8
0
100
AcDbLine
10
6.3499999999999641
20
451.34999999999991
30
0
11
6.3499999999999641
21
446.34999999999991
31
-2.171996391606243e-74
0
LINE
5
122
100
AcDbEntity
8
0
100
AcDbLine
10
6.3499999999999641
20
446.34999999999991
30
-2.171996391606243e-74
11
6.3499999999999641
21
11.349999999999909
31
8.953146708253624e-163
0
LINE
5
123
100
AcDbEntity
8
0
100
AcDbLine
10
6.3499999999999641
20
11.349999999999909
30
8.953146708253624e-163
11
6.3499999999999641
21
6.3499999999999375
31
-2.171996391606243e-74
0
LINE
5
124
100
AcDbEntity
8
0
100
AcDbLine
10
6.3499999999999641
20
11.349999999999909
30
8.953146708253624e-163
11
6.3499999999999641
21
6.3499999999999375
31
-2.171996391606243e-74
0
LINE
5
125
100
AcDbEntity
8
0
100
AcDbLine
10
6.3499999999999641
20
11.349999999999909
30
8.953146708253624e-163
11
6.3499999999999641
21
446.34999999999991
31
-2.171996391606243e-74
0
LINE
5
126
100
AcDbEntity
8
0
100
AcDbLine
10
6.3499999999999641
20
451.34999999999991
30
0
11
6.3499999999999641
21
446.34999999999991
31
-2.171996391606243e-74
0
LINE
5
127
100
AcDbEntity
8
0
100
AcDbLine
10
6.3499999999999641
20
447.34999999999985
30
1.9984014443252818e-14
11
6.3499999999999641
21
440.34999999999997
31
1.9984014443252818e-14
0
LINE
5
128
100
AcDbEntity
8
0
100
AcDbLine
10
6.3499999999999641
20
447.34999999999985
30
1.9984014443252818e-14
11
6.3499999999999641
21
440.34999999999997
31
1.9984014443252818e-14
0
LINE
5
129
100
AcDbEntity
8
0
100
AcDbLine
10
6.3499999999999641
20
445.59999999999997
30
2.2204460492503131e-15
11
6.3499999999999641
21
442.09999999999985
31
2.2204460492503131e-15
0
LINE
5
130
100
AcDbEntity
8
0
100
AcDbLine
10
6.3499999999999641
20
445.59999999999997
30
2.2204460492503131e-15
11
6.3499999999999641
21
442.09999999999985
31
2.2204460492503131e-15
0
LINE
5
131
100
AcDbEntity
8
0
100
AcDbLine
10
6.3499999999999641
20
15.599999999999937
30
2.2204460492503131e-15
11
6.3499999999999641
21
12.099999999999937
31
2.2204460492503131e-15
0
LINE
5
132
100
AcDbEntity
8
0
100
AcDbLine
10
6.3499999999999641
20
144.34999999999997
30
0
11
6.3499999999999641
21
140.84999999999994
31
-1.5203974741243764e-74
0
LINE
5
133
100
AcDbEntity
8
0
100
AcDbLine
10
6.3499999999999641
20
403.09999999999997
30
1.9984014443252818e-14
11
6.3499999999999641
21
399.59999999999985
31
1.9984014443252818e-14
0
LINE
5
134
100
AcDbEntity
8
0
100
AcDbLine
10
6.3499999999999641
20
58.099999999999945
30
0
11
6.3499999999999641
21
54.59999999999993
31
-1.5203974741243764e-74
0
LINE
5
135
100
AcDbEntity
8
0
100
AcDbLine
10
6.3499999999999641
20
230.59999999999997
30
1.9984014443252818e-14
11
6.3499999999999641
21
227.09999999999994
31
1.9984014443252818e-14
0
LINE
5
136
100
AcDbEntity
8
0
100
AcDbLine
10
6.3499999999999641
20
58.099999999999945
30
0
11
6.3499999999999641
21
54.59999999999993
31
-1.5203974741243764e-74
0
LINE
5
137
100
AcDbEntity
8
0
100
AcDbLine
10
6.3499999999999641
20
230.59999999999997
30
1.9984014443252818e-14
11
6.3499999999999641
21
227.09999999999994
31
1.9984014443252818e-14
0
LINE
5
138
100
AcDbEntity
8
0
100
AcDbLine
10
6.3499999999999641
20
316.84999999999997
30
0
11
6.3499999999999641
21
313.34999999999991
31
-1.5203974741243764e-74
0
LINE
5
139
100
AcDbEntity
8
0
100
AcDbLine
10
6.3499999999999641
20
403.09999999999997
30
1.9984014443252818e-14
11
6.3499999999999641
21
399.59999999999985
31
1.9984014443252818e-14
0
LINE
5
140
100
AcDbEntity
8
0
100
AcDbLine
10
6.3499999999999641
20
445.59999999999997
30
2.2204460492503131e-15
11
6.3499999999999641
21
442.09999999999985
31
2.2204460492503131e-15
0
LINE
5
141
100
AcDbEntity
8
0
100
AcDbLine
10
6.3499999999999641
20
445.59999999999997
30
2.2204460492503131e-15
11
6.3499999999999641
21
442.09999999999985
31
2.2204460492503131e-15
0
LINE
5
142
100
AcDbEntity
8
0
100
AcDbLine
10
6.3499999999999641
20
445.59999999999997
30
2.2204460492503131e-15
11
6.3499999999999641
21
442.09999999999985
31
2.2204460492503131e-15
0
LINE
5
143
100
AcDbEntity
8
0
100
AcDbLine
10
6.3499999999999641
20
15.599999999999937
30
2.2204460492503131e-15
11
6.3499999999999641
21
12.099999999999937
31
2.2204460492503131e-15
0
LINE
5
144
100
AcDbEntity
8
0
100
AcDbLine
10
6.3499999999999641
20
316.84999999999997
30
0
11
6.3499999999999641
21
313.34999999999991
31
-1.5203974741243764e-74
0
LINE
5
145
100
AcDbEntity
8
0
100
AcDbLine
10
6.3499999999999641
20
15.599999999999937
30
2.2204460492503131e-15
11
6.3499999999999641
21
12.099999999999937
31
2.2204460492503131e-15
0
LINE
5
146
100
AcDbEntity
8
0
100
AcDbLine
10
6.3499999999999641
20
15.599999999999937
30
2.2204460492503131e-15
11
6.3499999999999641
21
12.099999999999937
31
2.2204460492503131e-15
0
LINE
5
147
100
AcDbEntity
8
0
100
AcDbLine
10
6.3499999999999641
20
15.599999999999937
30
2.2204460492503131e-15
11
6.3499999999999641
21
12.099999999999937
31
2.2204460492503131e-15
0
LINE
5
148
100
AcDbEntity
8
0
100
AcDbLine
10
6.3499999999999641
20
144.34999999999997
30
0
11
6.3499999999999641
21
140.84999999999994
31
-1.5203974741243764e-74
0
ENDSEC
0
SECTION
2
OBJECTS
0
DICTIONARY
5
C
100
AcDbDictionary
3
ACAD_GROUP
350
D
3
ACAD_MLINESTYLE
350
17
0
DICTIONARY
5
D
100
AcDbDictionary
0
DICTIONARY
5
1A
330
C
100
AcDbDictionary
0
DICTIONARY
5
17
100
AcDbDictionary
0
ENDSEC
0
EOF
