0
SECTION
2
HEADER
9
$INSUNITS
70
4
9
$ACADVER
1
AC1014
9
$HANDSEED
5
FFFF
0
ENDSEC
0
SECTION
2
TABLES
0
TABLE
2
VPORT
5
8
100
AcDbSymbolTable
0
ENDTAB
0
TABLE
2
LTYPE
5
5
100
AcDbSymbolTable
0
LTYPE
5
14
100
AcDbSymbolTableRecord
100
AcDbLinetypeTableRecord
2
BYBLOCK
70
0
0
LTYPE
5
15
100
AcDbSymbolTableRecord
100
AcDbLinetypeTableRecord
2
BYLAYER
70
0
0
ENDTAB
0
TABLE
2
LAYER
5
2
100
AcDbSymbolTable
70
2
0
LAYER
5
50
100
AcDbSymbolTableRecord
100
AcDbLayerTableRecord
2
0
70
0
6
CONTINUOUS
0
ENDTAB
0
TABLE
2
STYLE
5
3
100
AcDbSymbolTable
70
1
0
STYLE
5
11
100
AcDbSymbolTableRecord
100
AcDbTextStyleTableRecord
2
STANDARD
70
0
0
ENDTAB
0
TABLE
2
VIEW
5
6
100
AcDbSymbolTable
70
0
0
ENDTAB
0
TABLE
2
UCS
5
7
100
AcDbSymbolTable
70
0
0
ENDTAB
0
TABLE
2
APPID
5
9
100
AcDbSymbolTable
70
2
0
APPID
5
12
100
AcDbSymbolTableRecord
100
AcDbRegAppTableRecord
2
ACAD
70
0
0
ENDTAB
0
TABLE
2
DIMSTYLE
5
A
100
AcDbSymbolTable
70
1
0
ENDTAB
0
TABLE
2
BLOCK_RECORD
5
1
100
AcDbSymbolTable
70
1
0
BLOCK_RECORD
5
1F
100
AcDbSymbolTableRecord
100
AcDbBlockTableRecord
2
*MODEL_SPACE
0
BLOCK_RECORD
5
1B
100
AcDbSymbolTableRecord
100
AcDbBlockTableRecord
2
*PAPER_SPACE
0
ENDTAB
0
ENDSEC
0
SECTION
2
BLOCKS
0
BLOCK
5
20
100
AcDbEntity
100
AcDbBlockBegin
2
*MODEL_SPACE
0
ENDBLK
5
21
100
AcDbEntity
100
AcDbBlockEnd
0
BLOCK
5
1C
100
AcDbEntity
100
AcDbBlockBegin
2
*PAPER_SPACE
0
ENDBLK
5
1D
100
AcDbEntity
100
AcDbBlockEnd
0
ENDSEC
0
SECTION
2
ENTITIES
0
LWPOLYLINE
5
100
100
AcDbEntity
8
0
100
AcDbPolyline
90
8
70
1
43
0.0
10
-327.7239195780345
20
-183.24546117531094
10
-326.60368686287006
20
-183.24546117531094
42
0.27603881589364387
10
-324.84229733332461
20
-182.19282959636354
42
-0.14700991522162002
10
-321.7897181764767
20
-179.14025043951563
42
0.27603881589364165
10
-320.73708659752936
20
-177.3788609099702
10
-320.73708659752936
20
-176.25862819480577
42
0.5507604245862413
10
-323.59422945467213
20
-174.45161238899527
42
0.1729372986389853
10
-329.53093538384496
20
-180.38831831816805
42
0.55076042458625141
0
LWPOLYLINE
5
101
100
AcDbEntity
8
0
100
AcDbPolyline
90
8
70
1
43
0.0
10
-293.7202527526598
20
-190.636765523137
42
-0.098202186873790648
10
-297.44239265940314
20
-199.62280616704689
42
-0.47314004910100166
10
-300.52018173682637
20
-199.9268321300811
10
-301.24187731172185
20
-199.20513655518559
42
-0.35508676478086537
10
-301.50124764463794
20
-196.69588100940328
42
0.093621985246752082
10
-298.65994526356747
20
-189.83637026622
42
-0.35508676478086887
10
-296.70223113017124
20
-188.24546117531094
10
-295.6815994602494
20
-188.24546117531088
42
-0.47314004910099788
0
LWPOLYLINE
5
102
100
AcDbEntity
8
0
100
AcDbPolyline
90
8
70
1
43
0.0
10
-342.75392044239879
20
-180.85415682748479
42
-0.098202186873790315
10
-339.03178053565546
20
-171.86811618357493
42
-0.47314004910099777
10
-335.95399145823228
20
-171.56409022054072
10
-335.23229588333675
20
-172.28578579543623
42
-0.35508676478086959
10
-334.97292555042071
20
-174.79504134121856
42
0.093621985246751388
10
-337.81422793149119
20
-181.65455208440181
42
-0.35508676478086387
10
-339.7719420648873
20
-183.24546117531088
10
-340.7925737348092
20
-183.24546117531094
42
-0.47314004910100327
0
LWPOLYLINE
5
103
100
AcDbEntity
8
0
100
AcDbPolyline
90
8
70
1
43
0.0
10
-332.11443158926528
20
-164.95076723718478
42
-0.098202186873789968
10
-323.12839094535548
20
-161.22862733044147
42
-0.47314004910100965
10
-320.73708659752936
20
-163.18997403803098
10
-320.7370865975293
20
-164.21060570795288
42
-0.35508676478086981
10
-322.32799568843848
20
-166.16831984134905
42
0.093621985246751388
10
-329.18750643162173
20
-169.00962222241952
42
-0.35508676478086537
10
-331.69676197740398
20
-168.75025188950346
10
-332.41845755229951
20
-168.02855631460795
42
-0.47314004910100615
0
LWPOLYLINE
5
104
100
AcDbEntity
8
0
100
AcDbPolyline
90
8
70
1
43
0.0
10
-304.35974160579332
20
-206.54015511343704
42
-0.098202186873790981
10
-313.34578224970323
20
-210.26229502018037
42
-0.47314004910100327
10
-315.7370865975293
20
-208.30094831259083
10
-315.7370865975293
20
-207.28031664266894
42
-0.35508676478086487
10
-314.14617750662023
20
-205.32260250927277
42
0.09362198524675254
10
-307.28666676343693
20
-202.48130012820229
42
-0.35508676478086537
10
-304.77741121765462
20
-202.74067046111836
10
-304.05571564275908
20
-203.4623660360138
42
-0.47314004910100843
0
LWPOLYLINE
5
105
100
AcDbEntity
8
0
100
AcDbPolyline
90
8
70
1
43
0.0
10
-320.73708659752936
20
-195.23229415581602
10
-320.73708659752936
20
-194.11206144065162
42
0.27603881589363938
10
-321.7897181764767
20
-192.35067191110625
42
-0.14700991522162105
10
-324.84229733332461
20
-189.29809275425828
42
0.27603881589364387
10
-326.60368686287006
20
-188.24546117531094
10
-327.72391957803444
20
-188.24546117531094
42
0.55076042458624652
10
-329.53093538384496
20
-191.10260403245377
42
0.17293729863898563
10
-323.59422945467213
20
-197.03930996162654
42
0.5507604245862413
0
LWPOLYLINE
5
106
100
AcDbEntity
8
0
100
AcDbPolyline
90
8
70
1
43
0.0
10
-296.70223113017124
20
-183.24546117531094
10
-295.6815994602494
20
-183.24546117531094
42
0.4731400491009991
10
-293.7202527526598
20
-180.85415682748481
42
0.09820218687379173
10
-297.44239265940325
20
-171.86811618357484
42
0.47314004910100166
10
-300.52018173682643
20
-171.56409022054063
10
-301.24187731172191
20
-172.28578579543614
42
0.35508676478086537
10
-301.50124764463794
20
-174.79504134121842
42
-0.093621985246753095
10
-298.65994526356747
20
-181.65455208440181
42
0.35508676478086487
0
LWPOLYLINE
5
107
100
AcDbEntity
8
0
100
AcDbPolyline
90
8
70
1
43
0.0
10
-339.03178053565557
20
-199.6228061670468
42
-0.098202186873789857
10
-342.75392044239885
20
-190.63676552313697
42
-0.4731400491010001
10
-340.79257373480925
20
-188.24546117531088
10
-339.7719420648873
20
-188.24546117531096
42
-0.35508676478086387
10
-337.81422793149119
20
-189.83637026622
42
0.093621985246750541
10
-334.97292555042071
20
-196.69588100940317
42
-0.35508676478086187
10
-335.23229588333675
20
-199.20513655518556
10
-335.95399145823228
20
-199.92683213008115
42
-0.47314004910100005
0
LWPOLYLINE
5
108
100
AcDbEntity
8
0
100
AcDbPolyline
90
8
70
1
43
0.0
10
-304.77741121765467
20
-168.75025188950343
10
-304.0557156427592
20
-168.0285563146079
42
0.47314004910100166
10
-304.35974160579337
20
-164.95076723718472
42
0.098202186873790107
10
-313.34578224970323
20
-161.22862733044141
42
0.47314004910100327
10
-315.7370865975293
20
-163.18997403803098
10
-315.7370865975293
20
-164.21060570795288
42
0.35508676478086487
10
-314.14617750662023
20
-166.16831984134905
42
-0.09362198524675118
10
-307.28666676343698
20
-169.00962222241947
42
0.35508676478086537
0
LWPOLYLINE
5
109
100
AcDbEntity
8
0
100
AcDbPolyline
90
8
70
1
43
0.0
10
-323.12839094535536
20
-210.2622950201804
42
-0.098202186873792216
10
-332.11443158926534
20
-206.54015511343709
42
-0.47314004910099333
10
-332.41845755229963
20
-203.4623660360138
10
-331.69676197740409
20
-202.74067046111827
42
-0.35508676478087375
10
-329.18750643162173
20
-202.48130012820226
42
0.093621985246752762
10
-322.32799568843836
20
-205.32260250927271
42
-0.35508676478086981
10
-320.73708659752924
20
-207.28031664266894
10
-320.73708659752924
20
-208.30094831259083
42
-0.47314004910099799
0
LWPOLYLINE
5
110
100
AcDbEntity
8
0
100
AcDbPolyline
90
8
70
1
43
0.0
10
-308.75025361702421
20
-188.24546117531094
10
-309.87048633218853
20
-188.24546117531094
42
0.27603881589364387
10
-311.63187586173399
20
-189.29809275425828
42
-0.14700991522162216
10
-314.68445501858196
20
-192.35067191110625
42
0.27603881589364165
10
-315.7370865975293
20
-194.11206144065164
10
-315.7370865975293
20
-195.23229415581602
42
0.55076042458624652
10
-312.87994374038647
20
-197.03930996162654
42
0.17293729863898563
10
-306.94323781121369
20
-191.10260403245377
42
0.55076042458624652
0
LWPOLYLINE
5
111
100
AcDbEntity
8
0
100
AcDbPolyline
90
8
70
1
43
0.0
10
-309.87048633218853
20
-183.24546117531094
10
-308.75025361702416
20
-183.24546117531094
42
0.55076042458624896
10
-306.94323781121369
20
-180.38831831816805
42
0.1729372986389853
10
-312.87994374038647
20
-174.45161238899527
42
0.55076042458624652
10
-315.7370865975293
20
-176.25862819480577
10
-315.7370865975293
20
-177.37886090997017
42
0.27603881589364165
10
-314.68445501858196
20
-179.14025043951557
42
-0.1470099152216216
10
-311.63187586173399
20
-182.19282959636354
42
0.27603881589364387
0
LWPOLYLINE
5
112
100
AcDbEntity
8
0
100
AcDbPolyline
90
8
70
1
43
0.0
10
-361.6870865975294
20
-45.085461175311039
10
-91.687086597528392
20
-45.085461175311075
42
-0.41421356237309576
10
-76.687086597528392
20
-60.08546117531111
10
-76.687086597531433
20
-390.08546117531114
42
-0.41421356237309503
10
-91.687086597531433
20
-405.08546117531114
10
-361.68708659752946
20
-405.08546117531102
42
-0.41421356237309648
10
-376.68708659752946
20
-390.08546117531097
10
-376.6870865975294
20
-60.085461175311025
42
-0.4142135623730947
0
CIRCLE
5
113
100
AcDbEntity
8
0
100
AcDbCircle
10
-96.687086597529387
20
-65.085461175310769
30
8.1046280797636427e-14
40
1.7499999999999902
0
CIRCLE
5
114
100
AcDbEntity
8
0
100
AcDbCircle
10
-356.6870865975294
20
-65.08546117531084
30
1.2101430968414206e-13
40
1.7499999999999902
0
CIRCLE
5
115
100
AcDbEntity
8
0
100
AcDbCircle
10
-356.68708643928846
20
-384.98777594179501
30
5.440092820663267e-14
40
1.7499999999999702
0
CIRCLE
5
116
100
AcDbEntity
8
0
100
AcDbCircle
10
-96.687086597529444
20
-385.08546117531114
30
8.5487172896137054e-14
40
1.7500000000000102
0
ENDSEC
0
SECTION
2
OBJECTS
0
DICTIONARY
5
C
100
AcDbDictionary
3
ACAD_GROUP
350
D
3
ACAD_MLINESTYLE
350
17
0
DICTIONARY
5
D
100
AcDbDictionary
0
DICTIONARY
5
1A
330
C
100
AcDbDictionary
0
DICTIONARY
5
17
100
AcDbDictionary
0
ENDSEC
0
EOF
