0
SECTION
2
HEADER
9
$INSUNITS
70
4
9
$ACADVER
1
AC1014
9
$HANDSEED
5
FFFF
0
ENDSEC
0
SECTION
2
TABLES
0
TABLE
2
VPORT
5
8
100
AcDbSymbolTable
0
ENDTAB
0
TABLE
2
LTYPE
5
5
100
AcDbSymbolTable
0
LTYPE
5
14
100
AcDbSymbolTableRecord
100
AcDbLinetypeTableRecord
2
BYBLOCK
70
0
0
LTYPE
5
15
100
AcDbSymbolTableRecord
100
AcDbLinetypeTableRecord
2
BYLAYER
70
0
0
ENDTAB
0
TABLE
2
LAYER
5
2
100
AcDbSymbolTable
70
2
0
LAYER
5
50
100
AcDbSymbolTableRecord
100
AcDbLayerTableRecord
2
0
70
0
6
CONTINUOUS
0
ENDTAB
0
TABLE
2
STYLE
5
3
100
AcDbSymbolTable
70
1
0
STYLE
5
11
100
AcDbSymbolTableRecord
100
AcDbTextStyleTableRecord
2
STANDARD
70
0
0
ENDTAB
0
TABLE
2
VIEW
5
6
100
AcDbSymbolTable
70
0
0
ENDTAB
0
TABLE
2
UCS
5
7
100
AcDbSymbolTable
70
0
0
ENDTAB
0
TABLE
2
APPID
5
9
100
AcDbSymbolTable
70
2
0
APPID
5
12
100
AcDbSymbolTableRecord
100
AcDbRegAppTableRecord
2
ACAD
70
0
0
ENDTAB
0
TABLE
2
DIMSTYLE
5
A
100
AcDbSymbolTable
70
1
0
ENDTAB
0
TABLE
2
BLOCK_RECORD
5
1
100
AcDbSymbolTable
70
1
0
BLOCK_RECORD
5
1F
100
AcDbSymbolTableRecord
100
AcDbBlockTableRecord
2
*MODEL_SPACE
0
BLOCK_RECORD
5
1B
100
AcDbSymbolTableRecord
100
AcDbBlockTableRecord
2
*PAPER_SPACE
0
ENDTAB
0
ENDSEC
0
SECTION
2
BLOCKS
0
BLOCK
5
20
100
AcDbEntity
100
AcDbBlockBegin
2
*MODEL_SPACE
0
ENDBLK
5
21
100
AcDbEntity
100
AcDbBlockEnd
0
BLOCK
5
1C
100
AcDbEntity
100
AcDbBlockBegin
2
*PAPER_SPACE
0
ENDBLK
5
1D
100
AcDbEntity
100
AcDbBlockEnd
0
ENDSEC
0
SECTION
2
ENTITIES
0
LWPOLYLINE
5
100
100
AcDbEntity
8
0
100
AcDbPolyline
90
8
70
1
43
0.0
10
4.9999999999411679
20
-454.99999999999994
42
-0.41421356237309503
10
-5.8832938520936295e-11
20
-449.99999999999994
10
-5.8832938520936295e-11
20
-4.9999999999999298
42
-0.41421356237309503
10
4.9999999999411671
20
7.1054273576010019e-14
10
484.99999999994117
20
7.1054273576010019e-14
42
-0.41421356237309503
10
489.99999999994117
20
-4.9999999999999289
10
489.99999999994117
20
-449.99999999999994
42
-0.41421356237309503
10
484.99999999994117
20
-454.99999999999994
0
CIRCLE
5
101
100
AcDbEntity
8
0
100
AcDbCircle
10
413.49999999994111
20
-138.75
30
-1.2364553825250368e-10
40
1.7499999999999716
210
2.5087151971526114e-16
220
5.3637813813012409e-24
230
1
0
CIRCLE
5
102
100
AcDbEntity
8
0
100
AcDbCircle
10
413.49999999994111
20
-316.25
30
-1.2366774271299619e-10
40
1.7499999999999716
210
2.5087151971515297e-16
220
5.3637813813012409e-24
230
1
0
CIRCLE
5
103
100
AcDbEntity
8
0
100
AcDbCircle
10
76.499999999941082
20
-404.99999999999977
30
-1.2363665646830668e-10
40
1.7500000000000071
210
-2.8937430562649672e-18
220
5.3637813813012409e-24
230
1
0
CIRCLE
5
104
100
AcDbEntity
8
0
100
AcDbCircle
10
76.499999999941082
20
-227.5
30
-1.2361445200781418e-10
40
1.7499999999999982
210
-2.893743056192858e-18
220
5.3637813813012409e-24
230
1
0
CIRCLE
5
105
100
AcDbEntity
8
0
100
AcDbCircle
10
76.499999999941082
20
-50
30
-1.236155622308388e-10
40
1.7499999999999982
210
-2.8937430563010445e-18
220
5.3637813813012409e-24
230
1
0
CIRCLE
5
106
100
AcDbEntity
8
0
100
AcDbCircle
10
76.499999999941082
20
-138.75000000000003
30
-1.2360446000059255e-10
40
1.7499999999999982
210
-2.893743056192858e-18
220
5.3637813813012409e-24
230
1
0
CIRCLE
5
107
100
AcDbEntity
8
0
100
AcDbCircle
10
413.49999999994111
20
-404.99999999999994
30
-1.2367884494324244e-10
40
1.7499999999999716
210
2.5087151971515297e-16
220
5.3637813813012409e-24
230
1
0
CIRCLE
5
108
100
AcDbEntity
8
0
100
AcDbCircle
10
76.499999999941082
20
-316.25000000000006
30
-1.2362555423806043e-10
40
1.7499999999999982
210
-2.893743056192858e-18
220
5.3637813813012409e-24
230
1
0
CIRCLE
5
109
100
AcDbEntity
8
0
100
AcDbCircle
10
413.49999999994111
20
-227.5
30
-1.2365664048274994e-10
40
1.7500000000000426
210
2.5087151971517886e-16
220
5.3637813813012409e-24
230
1
0
CIRCLE
5
110
100
AcDbEntity
8
0
100
AcDbCircle
10
413.49999999994111
20
-50
30
-1.2365775070577456e-10
40
1.7500000000000426
210
2.5087151971525094e-16
220
5.3637813813012409e-24
230
1
0
CIRCLE
5
111
100
AcDbEntity
8
0
100
AcDbCircle
10
482.49999999994117
20
-7.4999999999999289
30
-1.2361445200781418e-10
40
3.5000000000000004
210
-5.4634613281870237e-21
220
5.3637813813012409e-24
230
1
0
CIRCLE
5
112
100
AcDbEntity
8
0
100
AcDbCircle
10
482.49999999994117
20
-447.49999999999994
30
-1.2361445200781418e-10
40
3.75
210
-5.4634613281870237e-21
220
5.3637813813012409e-24
230
1
0
CIRCLE
5
113
100
AcDbEntity
8
0
100
AcDbCircle
10
7.4999999999411671
20
-7.4999999999999289
30
-1.2361445200781418e-10
40
3.5000000000000102
210
-5.4634613281870237e-21
220
5.3637813813012409e-24
230
1
0
CIRCLE
5
114
100
AcDbEntity
8
0
100
AcDbCircle
10
7.4999999999411671
20
-447.49999999999994
30
-1.2361445200781418e-10
40
3.5000000000000102
210
-5.4634613281870237e-21
220
5.3637813813012409e-24
230
1
0
CIRCLE
5
115
100
AcDbEntity
8
0
100
AcDbCircle
10
19.393252921876183
20
-351.91806891872096
30
-1.2361445200781418e-10
40
1.7499999999999702
210
-5.4634613281870237e-21
220
5.3637813813012409e-24
230
1
0
CIRCLE
5
116
100
AcDbEntity
8
0
100
AcDbCircle
10
439.39325292187573
20
-224.41806891871693
30
-1.2361445200781418e-10
40
1.7499999999999902
210
-5.4634613281870237e-21
220
5.3637813813012409e-24
230
1
0
CIRCLE
5
117
100
AcDbEntity
8
0
100
AcDbCircle
10
50.393252921876126
20
-96.875127969915908
30
-1.2361445200781418e-10
40
1.7500000000000402
210
-5.4634613281870237e-21
220
5.3637813813012409e-24
230
1
0
CIRCLE
5
118
100
AcDbEntity
8
0
100
AcDbCircle
10
50.393252921876126
20
-127.87512796991592
30
-1.2361445200781418e-10
40
1.7500000000000402
210
-5.4634613281870237e-21
220
5.3637813813012409e-24
230
1
0
CIRCLE
5
119
100
AcDbEntity
8
0
100
AcDbCircle
10
470.39325292187578
20
-224.41806891871693
30
-1.2361445200781418e-10
40
1.7500000000000002
210
-5.4634613281870237e-21
220
5.3637813813012409e-24
230
1
0
CIRCLE
5
120
100
AcDbEntity
8
0
100
AcDbCircle
10
19.393252921876183
20
-382.91806891872136
30
-1.2361445200781418e-10
40
1.7500000000000402
210
-5.4634613281870237e-21
220
5.3637813813012409e-24
230
1
0
CIRCLE
5
121
100
AcDbEntity
8
0
100
AcDbCircle
10
50.393252921876126
20
-351.91806891872096
30
-1.2361445200781418e-10
40
1.7499999999999702
210
-5.4634613281870237e-21
220
5.3637813813012409e-24
230
1
0
CIRCLE
5
122
100
AcDbEntity
8
0
100
AcDbCircle
10
439.39325292187573
20
-255.41806891871693
30
-1.2361445200781418e-10
40
1.7500000000000102
210
-5.4634613281870237e-21
220
5.3637813813012409e-24
230
1
0
CIRCLE
5
123
100
AcDbEntity
8
0
100
AcDbCircle
10
19.393252921876183
20
-96.875127969915908
30
-1.2361445200781418e-10
40
1.7499999999999702
210
-5.4634613281870237e-21
220
5.3637813813012409e-24
230
1
0
CIRCLE
5
124
100
AcDbEntity
8
0
100
AcDbCircle
10
19.393252921876183
20
-127.87512796991592
30
-1.2361445200781418e-10
40
1.7499999999999702
210
-5.4634613281870237e-21
220
5.3637813813012409e-24
230
1
0
CIRCLE
5
125
100
AcDbEntity
8
0
100
AcDbCircle
10
470.39325292187578
20
-255.41806891871693
30
-1.2361445200781418e-10
40
1.7500000000000002
210
-5.4634613281870237e-21
220
5.3637813813012409e-24
230
1
0
CIRCLE
5
126
100
AcDbEntity
8
0
100
AcDbCircle
10
50.393252921876126
20
-382.91806891872136
30
-1.2361445200781418e-10
40
1.7500000000000402
210
-5.4634613281870237e-21
220
5.3637813813012409e-24
230
1
0
CIRCLE
5
127
100
AcDbEntity
8
0
100
AcDbCircle
10
34.999771612186166
20
-112.2022109955239
30
-1.2361445200781418e-10
40
12.5
210
-5.4634613281870237e-21
220
5.3637813813012409e-24
230
1
0
CIRCLE
5
128
100
AcDbEntity
8
0
100
AcDbCircle
10
34.999849107912127
20
-367.24515194432945
30
-1.2361445200781418e-10
40
12.5
210
-5.4634613281870237e-21
220
5.3637813813012409e-24
230
1
0
CIRCLE
5
129
100
AcDbEntity
8
0
100
AcDbCircle
10
454.99989609512994
20
-239.7451519443249
30
-1.2361445200781418e-10
40
12.5
210
-5.4634613281870237e-21
220
5.3637813813012409e-24
230
1
0
CIRCLE
5
130
100
AcDbEntity
8
0
100
AcDbCircle
10
7.4999999999411671
20
-316.24999999999994
30
-1.2361445200781418e-10
40
1.7500000000000402
210
-5.4634613281870237e-21
220
5.3637813813012409e-24
230
1
0
CIRCLE
5
131
100
AcDbEntity
8
0
100
AcDbCircle
10
7.4999999999411671
20
-227.49999999999997
30
-1.2361445200781418e-10
40
1.7500000000000402
210
-5.4634613281870237e-21
220
5.3637813813012409e-24
230
1
0
CIRCLE
5
132
100
AcDbEntity
8
0
100
AcDbCircle
10
244.99999999994117
20
-447.49999999999994
30
-1.2361445200781418e-10
40
1.7500000000000102
210
-5.4634613281870237e-21
220
5.3637813813012409e-24
230
1
0
CIRCLE
5
133
100
AcDbEntity
8
0
100
AcDbCircle
10
7.4999999999411671
20
-138.74999999999997
30
-1.2361445200781418e-10
40
1.7499999999999702
210
-5.4634613281870237e-21
220
5.3637813813012409e-24
230
1
0
CIRCLE
5
134
100
AcDbEntity
8
0
100
AcDbCircle
10
7.4999999999411671
20
-49.999999999999929
30
-1.2361445200781418e-10
40
1.7500000000000402
210
-5.4634613281870237e-21
220
5.3637813813012409e-24
230
1
0
CIRCLE
5
135
100
AcDbEntity
8
0
100
AcDbCircle
10
147.49999999994117
20
-447.49999999999994
30
-1.2361445200781418e-10
40
1.7499999999999702
210
-5.4634613281870237e-21
220
5.3637813813012409e-24
230
1
0
CIRCLE
5
136
100
AcDbEntity
8
0
100
AcDbCircle
10
482.49999999994117
20
-404.99999999999994
30
-1.2361445200781418e-10
40
1.7500000000000002
210
-5.4634613281870237e-21
220
5.3637813813012409e-24
230
1
0
CIRCLE
5
137
100
AcDbEntity
8
0
100
AcDbCircle
10
439.99999999994117
20
-447.49999999999994
30
-1.2361445200781418e-10
40
1.7500000000000102
210
-5.4634613281870237e-21
220
5.3637813813012409e-24
230
1
0
CIRCLE
5
138
100
AcDbEntity
8
0
100
AcDbCircle
10
49.999999999941167
20
-7.4999999999999289
30
-1.2361445200781418e-10
40
1.7500000000000402
210
-5.4634613281870237e-21
220
5.3637813813012409e-24
230
1
0
CIRCLE
5
139
100
AcDbEntity
8
0
100
AcDbCircle
10
482.49999999994117
20
-49.999999999999929
30
-1.2361445200781418e-10
40
1.7500000000000002
210
-5.4634613281870237e-21
220
5.3637813813012409e-24
230
1
0
CIRCLE
5
140
100
AcDbEntity
8
0
100
AcDbCircle
10
49.999999999941167
20
-447.5
30
-1.2361445200781418e-10
40
1.7499999999999702
210
-5.4634613281870237e-21
220
5.3637813813012409e-24
230
1
0
CIRCLE
5
141
100
AcDbEntity
8
0
100
AcDbCircle
10
7.4999999999411671
20
-404.99999999999977
30
-1.2361445200781418e-10
40
1.7500000000000402
210
-5.4634613281870237e-21
220
5.3637813813012409e-24
230
1
0
CIRCLE
5
142
100
AcDbEntity
8
0
100
AcDbCircle
10
482.49999999994117
20
-316.24999999999994
30
-1.2361445200781418e-10
40
1.7500000000000002
210
-5.4634613281870237e-21
220
5.3637813813012409e-24
230
1
0
CIRCLE
5
143
100
AcDbEntity
8
0
100
AcDbCircle
10
342.49999999994117
20
-447.49999999999994
30
-1.2361445200781418e-10
40
1.7500000000000102
210
-5.4634613281870237e-21
220
5.3637813813012409e-24
230
1
0
CIRCLE
5
144
100
AcDbEntity
8
0
100
AcDbCircle
10
439.99999999994117
20
-7.4999999999999289
30
-1.2361445200781418e-10
40
1.7500000000000002
210
-5.4634613281870237e-21
220
5.3637813813012409e-24
230
1
0
CIRCLE
5
145
100
AcDbEntity
8
0
100
AcDbCircle
10
342.49999999994117
20
-7.4999999999999289
30
-1.2361445200781418e-10
40
1.7499999999999902
210
-5.4634613281870237e-21
220
5.3637813813012409e-24
230
1
0
CIRCLE
5
146
100
AcDbEntity
8
0
100
AcDbCircle
10
244.99999999994114
20
-7.4999999999999289
30
-1.2361445200781418e-10
40
1.7500000000000102
210
-5.4634613281870237e-21
220
5.3637813813012409e-24
230
1
0
CIRCLE
5
147
100
AcDbEntity
8
0
100
AcDbCircle
10
147.49999999994117
20
-7.4999999999999289
30
-1.2361445200781418e-10
40
1.7500000000000402
210
-5.4634613281870237e-21
220
5.3637813813012409e-24
230
1
0
CIRCLE
5
148
100
AcDbEntity
8
0
100
AcDbCircle
10
482.49999999994117
20
-138.74999999999994
30
-1.2361445200781418e-10
40
1.7499999999999802
210
-5.4634613281870237e-21
220
5.3637813813012409e-24
230
1
0
CIRCLE
5
149
100
AcDbEntity
8
0
100
AcDbCircle
10
482.49999999994117
20
-227.49999999999994
30
-1.2361445200781418e-10
40
1.7499999999999902
210
-5.4634613281870237e-21
220
5.3637813813012409e-24
230
1
0
ENDSEC
0
SECTION
2
OBJECTS
0
DICTIONARY
5
C
100
AcDbDictionary
3
ACAD_GROUP
350
D
3
ACAD_MLINESTYLE
350
17
0
DICTIONARY
5
D
100
AcDbDictionary
0
DICTIONARY
5
1A
330
C
100
AcDbDictionary
0
DICTIONARY
5
17
100
AcDbDictionary
0
ENDSEC
0
EOF
