0
SECTION
2
HEADER
9
$INSUNITS
70
4
9
$ACADVER
1
AC1014
9
$HANDSEED
5
FFFF
0
ENDSEC
0
SECTION
2
TABLES
0
TABLE
2
VPORT
5
8
100
AcDbSymbolTable
0
ENDTAB
0
TABLE
2
LTYPE
5
5
100
AcDbSymbolTable
0
LTYPE
5
14
100
AcDbSymbolTableRecord
100
AcDbLinetypeTableRecord
2
BYBLOCK
70
0
0
LTYPE
5
15
100
AcDbSymbolTableRecord
100
AcDbLinetypeTableRecord
2
BYLAYER
70
0
0
ENDTAB
0
TABLE
2
LAYER
5
2
100
AcDbSymbolTable
70
2
0
LAYER
5
50
100
AcDbSymbolTableRecord
100
AcDbLayerTableRecord
2
0
70
0
6
CONTINUOUS
0
ENDTAB
0
TABLE
2
STYLE
5
3
100
AcDbSymbolTable
70
1
0
STYLE
5
11
100
AcDbSymbolTableRecord
100
AcDbTextStyleTableRecord
2
STANDARD
70
0
0
ENDTAB
0
TABLE
2
VIEW
5
6
100
AcDbSymbolTable
70
0
0
ENDTAB
0
TABLE
2
UCS
5
7
100
AcDbSymbolTable
70
0
0
ENDTAB
0
TABLE
2
APPID
5
9
100
AcDbSymbolTable
70
2
0
APPID
5
12
100
AcDbSymbolTableRecord
100
AcDbRegAppTableRecord
2
ACAD
70
0
0
ENDTAB
0
TABLE
2
DIMSTYLE
5
A
100
AcDbSymbolTable
70
1
0
ENDTAB
0
TABLE
2
BLOCK_RECORD
5
1
100
AcDbSymbolTable
70
1
0
BLOCK_RECORD
5
1F
100
AcDbSymbolTableRecord
100
AcDbBlockTableRecord
2
*MODEL_SPACE
0
BLOCK_RECORD
5
1B
100
AcDbSymbolTableRecord
100
AcDbBlockTableRecord
2
*PAPER_SPACE
0
ENDTAB
0
ENDSEC
0
SECTION
2
BLOCKS
0
BLOCK
5
20
100
AcDbEntity
100
AcDbBlockBegin
2
*MODEL_SPACE
0
ENDBLK
5
21
100
AcDbEntity
100
AcDbBlockEnd
0
BLOCK
5
1C
100
AcDbEntity
100
AcDbBlockBegin
2
*PAPER_SPACE
0
ENDBLK
5
1D
100
AcDbEntity
100
AcDbBlockEnd
0
ENDSEC
0
SECTION
2
ENTITIES
0
LWPOLYLINE
5
100
100
AcDbEntity
8
0
100
AcDbPolyline
90
8
70
1
43
0.0
10
-5
20
455
42
-0.41421356237309503
10
0
20
450
10
0
20
5
42
-0.41421356237309503
10
-5
20
0
10
-485
20
0
42
-0.41421356237309503
10
-490
20
5
10
-490
20
450
42
-0.41421356237309503
10
-485
20
455
0
CIRCLE
5
101
100
AcDbEntity
8
0
100
AcDbCircle
10
-439.14955516705788
20
255.22680117883996
30
-1.1102230246251565e-15
40
1.7499999999999702
0
CIRCLE
5
102
100
AcDbEntity
8
0
100
AcDbCircle
10
-49.980190036101959
20
382.72680117884482
30
-1.1102230246251565e-15
40
1.7499999999999902
0
CIRCLE
5
103
100
AcDbEntity
8
0
100
AcDbCircle
10
-34.545771612244991
20
112.20221099552397
30
-1.1102230246251565e-15
40
12.5
0
CIRCLE
5
104
100
AcDbEntity
8
0
100
AcDbCircle
10
-470.16223702331979
20
224.26350270980896
30
6.8833827526759706e-14
40
1.7499999999999702
0
CIRCLE
5
105
100
AcDbEntity
8
0
100
AcDbCircle
10
-50.052112540375973
20
96.720561761008952
30
-1.1102230246251565e-15
40
1.7500000000000002
0
CIRCLE
5
106
100
AcDbEntity
8
0
100
AcDbCircle
10
-34.473849107970977
20
367.24515194432956
30
-1.1102230246251565e-15
40
12.5
0
CIRCLE
5
107
100
AcDbEntity
8
0
100
AcDbCircle
10
-19.064122377729973
20
96.695870067392988
30
-1.1102230246251565e-15
40
1.7500000000000002
0
CIRCLE
5
108
100
AcDbEntity
8
0
100
AcDbCircle
10
-470.13754532970415
20
255.25149287245597
30
6.8833827526759706e-14
40
1.7500000000000402
0
CIRCLE
5
109
100
AcDbEntity
8
0
100
AcDbCircle
10
-49.955498342486919
20
351.73881101619799
30
-1.1102230246251565e-15
40
1.7500000000000202
0
CIRCLE
5
110
100
AcDbEntity
8
0
100
AcDbCircle
10
-18.967508179839996
20
351.76350270981402
30
-1.1102230246251565e-15
40
1.7500000000000002
0
CIRCLE
5
111
100
AcDbEntity
8
0
100
AcDbCircle
10
-454.65589609518884
20
239.74515194432499
30
-1.1102230246251565e-15
40
12.5
0
CIRCLE
5
112
100
AcDbEntity
8
0
100
AcDbCircle
10
-19.039430684113938
20
127.68386023003998
30
-1.1102230246251565e-15
40
1.7500000000000002
0
CIRCLE
5
113
100
AcDbEntity
8
0
100
AcDbCircle
10
-18.992199873455959
20
382.75149287246046
30
-1.1102230246251565e-15
40
1.7500000000000102
0
CIRCLE
5
114
100
AcDbEntity
8
0
100
AcDbCircle
10
-50.027420846759938
20
127.70855192365502
30
-1.1102230246251565e-15
40
1.7500000000000002
0
CIRCLE
5
115
100
AcDbEntity
8
0
100
AcDbCircle
10
-439.17424686067352
20
224.23881101619401
30
-1.1102230246251565e-15
40
1.7499999999999702
0
CIRCLE
5
116
100
AcDbEntity
8
0
100
AcDbCircle
10
-7.5
20
316.25000000000006
30
-1.1102230246251565e-15
40
1.7500000000000402
0
CIRCLE
5
117
100
AcDbEntity
8
0
100
AcDbCircle
10
-7.5
20
227.50000000000003
30
-1.1102230246251565e-15
40
1.7500000000000402
0
CIRCLE
5
118
100
AcDbEntity
8
0
100
AcDbCircle
10
-245
20
447.5
30
-1.1102230246251565e-15
40
1.7500000000000102
0
CIRCLE
5
119
100
AcDbEntity
8
0
100
AcDbCircle
10
-7.5
20
138.75000000000003
30
-1.1102230246251565e-15
40
1.7499999999999702
0
CIRCLE
5
120
100
AcDbEntity
8
0
100
AcDbCircle
10
-7.5
20
50
30
-1.1102230246251565e-15
40
1.7500000000000402
0
CIRCLE
5
121
100
AcDbEntity
8
0
100
AcDbCircle
10
-147.5
20
447.5
30
-1.1102230246251565e-15
40
1.7499999999999702
0
CIRCLE
5
122
100
AcDbEntity
8
0
100
AcDbCircle
10
-482.5
20
405
30
-1.1102230246251565e-15
40
1.7500000000000002
0
CIRCLE
5
123
100
AcDbEntity
8
0
100
AcDbCircle
10
-440
20
447.5
30
-1.1102230246251565e-15
40
1.7500000000000102
0
CIRCLE
5
124
100
AcDbEntity
8
0
100
AcDbCircle
10
-50
20
7.5
30
-1.1102230246251565e-15
40
1.7500000000000402
0
CIRCLE
5
125
100
AcDbEntity
8
0
100
AcDbCircle
10
-482.5
20
50
30
-1.1102230246251565e-15
40
1.7500000000000002
0
CIRCLE
5
126
100
AcDbEntity
8
0
100
AcDbCircle
10
-50
20
447.50000000000006
30
-1.1102230246251565e-15
40
1.7499999999999702
0
CIRCLE
5
127
100
AcDbEntity
8
0
100
AcDbCircle
10
-7.5
20
404.99999999999989
30
-1.1102230246251565e-15
40
1.7500000000000402
0
CIRCLE
5
128
100
AcDbEntity
8
0
100
AcDbCircle
10
-482.5
20
316.25
30
-1.1102230246251565e-15
40
1.7500000000000002
0
CIRCLE
5
129
100
AcDbEntity
8
0
100
AcDbCircle
10
-342.5
20
447.5
30
-1.1102230246251565e-15
40
1.7500000000000102
0
CIRCLE
5
130
100
AcDbEntity
8
0
100
AcDbCircle
10
-440
20
7.5
30
-1.1102230246251565e-15
40
1.7500000000000002
0
CIRCLE
5
131
100
AcDbEntity
8
0
100
AcDbCircle
10
-342.5
20
7.5
30
-1.1102230246251565e-15
40
1.7499999999999902
0
CIRCLE
5
132
100
AcDbEntity
8
0
100
AcDbCircle
10
-244.99999999999997
20
7.5
30
-1.1102230246251565e-15
40
1.7500000000000102
0
CIRCLE
5
133
100
AcDbEntity
8
0
100
AcDbCircle
10
-147.5
20
7.5
30
-1.1102230246251565e-15
40
1.7500000000000402
0
CIRCLE
5
134
100
AcDbEntity
8
0
100
AcDbCircle
10
-482.5
20
138.75
30
-1.1102230246251565e-15
40
1.7499999999999802
0
CIRCLE
5
135
100
AcDbEntity
8
0
100
AcDbCircle
10
-482.5
20
227.5
30
-1.1102230246251565e-15
40
1.7499999999999902
0
ENDSEC
0
SECTION
2
OBJECTS
0
DICTIONARY
5
C
100
AcDbDictionary
3
ACAD_GROUP
350
D
3
ACAD_MLINESTYLE
350
17
0
DICTIONARY
5
D
100
AcDbDictionary
0
DICTIONARY
5
1A
330
C
100
AcDbDictionary
0
DICTIONARY
5
17
100
AcDbDictionary
0
ENDSEC
0
EOF
