0
SECTION
2
HEADER
9
$INSUNITS
70
4
9
$ACADVER
1
AC1014
9
$HANDSEED
5
FFFF
0
ENDSEC
0
SECTION
2
TABLES
0
TABLE
2
VPORT
5
8
100
AcDbSymbolTable
0
ENDTAB
0
TABLE
2
LTYPE
5
5
100
AcDbSymbolTable
0
LTYPE
5
14
100
AcDbSymbolTableRecord
100
AcDbLinetypeTableRecord
2
BYBLOCK
70
0
0
LTYPE
5
15
100
AcDbSymbolTableRecord
100
AcDbLinetypeTableRecord
2
BYLAYER
70
0
0
ENDTAB
0
TABLE
2
LAYER
5
2
100
AcDbSymbolTable
70
2
0
LAYER
5
50
100
AcDbSymbolTableRecord
100
AcDbLayerTableRecord
2
0
70
0
6
CONTINUOUS
0
ENDTAB
0
TABLE
2
STYLE
5
3
100
AcDbSymbolTable
70
1
0
STYLE
5
11
100
AcDbSymbolTableRecord
100
AcDbTextStyleTableRecord
2
STANDARD
70
0
0
ENDTAB
0
TABLE
2
VIEW
5
6
100
AcDbSymbolTable
70
0
0
ENDTAB
0
TABLE
2
UCS
5
7
100
AcDbSymbolTable
70
0
0
ENDTAB
0
TABLE
2
APPID
5
9
100
AcDbSymbolTable
70
2
0
APPID
5
12
100
AcDbSymbolTableRecord
100
AcDbRegAppTableRecord
2
ACAD
70
0
0
ENDTAB
0
TABLE
2
DIMSTYLE
5
A
100
AcDbSymbolTable
70
1
0
ENDTAB
0
TABLE
2
BLOCK_RECORD
5
1
100
AcDbSymbolTable
70
1
0
BLOCK_RECORD
5
1F
100
AcDbSymbolTableRecord
100
AcDbBlockTableRecord
2
*MODEL_SPACE
0
BLOCK_RECORD
5
1B
100
AcDbSymbolTableRecord
100
AcDbBlockTableRecord
2
*PAPER_SPACE
0
ENDTAB
0
ENDSEC
0
SECTION
2
BLOCKS
0
BLOCK
5
20
100
AcDbEntity
100
AcDbBlockBegin
2
*MODEL_SPACE
0
ENDBLK
5
21
100
AcDbEntity
100
AcDbBlockEnd
0
BLOCK
5
1C
100
AcDbEntity
100
AcDbBlockBegin
2
*PAPER_SPACE
0
ENDBLK
5
1D
100
AcDbEntity
100
AcDbBlockEnd
0
ENDSEC
0
SECTION
2
ENTITIES
0
LWPOLYLINE
5
100
100
AcDbEntity
8
0
100
AcDbPolyline
90
8
70
1
43
0.0
10
-454.90596771245214
20
446.68708682050629
42
-0.41421356237309503
10
-449.90596771245214
20
451.68708682050629
10
-4.9059677124521537
20
451.68708682050624
42
-0.41421356237309503
10
0.094032287547847204
20
446.68708682050624
10
0.09403228754777726
20
11.687086820506245
42
-0.41421356237309503
10
-4.9059677124522239
20
6.6870868205062441
10
-449.90596771245225
20
6.6870868205062983
42
-0.41421356237309503
10
-454.90596771245225
20
11.687086820506281
0
CIRCLE
5
101
100
AcDbEntity
8
0
100
AcDbCircle
10
-303.32696771244804
20
173.4370885192412
30
-6.9989569695394493e-11
40
1.7500000000000071
210
1.2212453270873596e-15
220
5.4634613281870237e-21
230
1
0
CIRCLE
5
102
100
AcDbEntity
8
0
100
AcDbCircle
10
-303.32696771244809
20
124.43708851924129
30
-7.0026207055207124e-11
40
1.7500000000000071
210
1.2212453270873596e-15
220
5.4634613281870237e-21
230
1
0
CIRCLE
5
103
100
AcDbEntity
8
0
100
AcDbCircle
10
-361.32696771244787
20
173.43708851924137
30
-7.039369087635805e-11
40
1.7500000000000426
210
-2.3314683517131301e-15
220
5.4634613281870237e-21
230
1
0
CIRCLE
5
104
100
AcDbEntity
8
0
100
AcDbCircle
10
-361.32696771244798
20
124.4370885192414
30
-7.0431438459195306e-11
40
1.7499999999999716
210
-2.3314683517131344e-15
220
5.4634613281870237e-21
230
1
0
CIRCLE
5
105
100
AcDbEntity
8
0
100
AcDbCircle
10
-384.72696771244784
20
325.73708851924255
30
-1.2889245226688217e-10
40
1.7500000000000426
210
-2.6464712235740586e-29
220
0
230
1
0
CIRCLE
5
106
100
AcDbEntity
8
0
100
AcDbCircle
10
-384.72696771244784
20
201.73708851924255
30
-1.531930138298776e-10
40
1.7499999999999716
210
-2.6464712235735451e-29
220
0
230
1
0
CIRCLE
5
107
100
AcDbEntity
8
0
100
AcDbCircle
10
-254.72696771244787
20
201.73708851924249
30
-1.3997691894473974e-10
40
1.7500000000000071
210
-2.6464712235738007e-29
220
0
230
1
0
CIRCLE
5
108
100
AcDbEntity
8
0
100
AcDbCircle
10
-447.40596771245225
20
14.187086820506298
30
-7.0556893660977948e-11
40
3.5000000000000142
210
-2.3314683517131415e-15
220
5.4634613281870237e-21
230
1
0
CIRCLE
5
109
100
AcDbEntity
8
0
100
AcDbCircle
10
-7.4059677124522239
20
14.187086820506245
30
-7.0043970623601126e-11
40
3.5000000000000004
210
-2.9693130726323262e-28
220
5.4634613281870237e-21
230
1
0
CIRCLE
5
110
100
AcDbEntity
8
0
100
AcDbCircle
10
-192.26573487542285
20
183.18708851924129
30
-7.0117245343226386e-11
40
1.9999999999999929
210
1.2212453270873756e-15
220
5.4634613281870237e-21
230
1
0
CIRCLE
5
111
100
AcDbEntity
8
0
100
AcDbCircle
10
-142.26573487542285
20
333.18708851924112
30
-7.0282668573895535e-11
40
1.9999999999999929
210
-5.5511151231287488e-16
220
5.4634613281870237e-21
230
1
0
CIRCLE
5
112
100
AcDbEntity
8
0
100
AcDbCircle
10
-86.503733657163906
20
320.43708851924129
30
-7.0216055192418025e-11
40
1.9999999999999929
210
-5.5511151231287488e-16
220
5.4634613281870237e-21
230
1
0
CIRCLE
5
113
100
AcDbEntity
8
0
100
AcDbCircle
10
-86.503733657163977
20
272.93708851924129
30
-6.992850742904011e-11
40
1.9999999999999929
210
-5.5511151231287488e-16
220
5.4634613281870237e-21
230
1
0
CIRCLE
5
114
100
AcDbEntity
8
0
100
AcDbCircle
10
-192.26573487542285
20
333.18708851924123
30
-7.0372596638890172e-11
40
1.9999999999999929
210
1.2212453270873756e-15
220
5.4634613281870237e-21
230
1
0
CIRCLE
5
115
100
AcDbEntity
8
0
100
AcDbCircle
10
-142.26573487542285
20
183.18708851924129
30
-7.0027317278231749e-11
40
1.9999999999999929
210
-5.5511151231287488e-16
220
5.4634613281870237e-21
230
1
0
CIRCLE
5
116
100
AcDbEntity
8
0
100
AcDbCircle
10
-67.405967712452153
20
356.68708682050817
30
-7.0039529731502626e-11
40
1.7499999999999702
210
-1.5268245602281903e-28
220
5.4634613281870237e-21
230
1
0
CIRCLE
5
117
100
AcDbEntity
8
0
100
AcDbCircle
10
-7.4059677124521528
20
444.18708682050624
30
-7.0039529731502626e-11
40
3.5000000000000102
210
-1.5268245602281903e-28
220
5.4634613281870237e-21
230
1
0
CIRCLE
5
118
100
AcDbEntity
8
0
100
AcDbCircle
10
-447.40596771245214
20
444.18708682050629
30
-7.0039529731502626e-11
40
3.5000000000000102
210
-1.5268245602281903e-28
220
5.4634613281870237e-21
230
1
0
CIRCLE
5
119
100
AcDbEntity
8
0
100
AcDbCircle
10
-387.40596771245225
20
96.687086820506295
30
-7.0039529731502626e-11
40
1.7500000000000102
210
-1.5268245602281903e-28
220
5.4634613281870237e-21
230
1
0
CIRCLE
5
120
100
AcDbEntity
8
0
100
AcDbCircle
10
-369.7269677124483
20
215.68708851924131
30
-7.0039529731502626e-11
40
1.7500000000000102
210
-1.5268245602281903e-28
220
5.4634613281870237e-21
230
1
0
CIRCLE
5
121
100
AcDbEntity
8
0
100
AcDbCircle
10
-254.72696771244816
20
215.68708851924129
30
-7.0039529731502626e-11
40
1.7500000000000102
210
-1.5268245602281903e-28
220
5.4634613281870237e-21
230
1
0
CIRCLE
5
122
100
AcDbEntity
8
0
100
AcDbCircle
10
-254.72696771244816
20
325.68708851924129
30
-7.0039529731502626e-11
40
1.7500000000000102
210
-1.5268245602281903e-28
220
5.4634613281870237e-21
230
1
0
CIRCLE
5
123
100
AcDbEntity
8
0
100
AcDbCircle
10
-254.72696771244819
20
123.68749437658028
30
-7.0039529731502626e-11
40
1.7500000000000102
210
-1.5268245602281903e-28
220
5.4634613281870237e-21
230
1
0
CIRCLE
5
124
100
AcDbEntity
8
0
100
AcDbCircle
10
-369.7269677124483
20
233.68708851924134
30
-7.0039529731502626e-11
40
1.7500000000000102
210
-1.5268245602281903e-28
220
5.4634613281870237e-21
230
1
0
CIRCLE
5
125
100
AcDbEntity
8
0
100
AcDbCircle
10
-387.40596771245214
20
356.68708682050828
30
-7.0039529731502626e-11
40
1.7499999999999702
210
-1.5268245602281903e-28
220
5.4634613281870237e-21
230
1
0
CIRCLE
5
126
100
AcDbEntity
8
0
100
AcDbCircle
10
-369.72696771244796
20
123.68708851924129
30
-7.0039529731502626e-11
40
1.7500000000000102
210
-1.5268245602281903e-28
220
5.4634613281870237e-21
230
1
0
CIRCLE
5
127
100
AcDbEntity
8
0
100
AcDbCircle
10
-254.72696771244816
20
233.68708851924129
30
-7.0039529731502626e-11
40
1.7500000000000102
210
-1.5268245602281903e-28
220
5.4634613281870237e-21
230
1
0
CIRCLE
5
128
100
AcDbEntity
8
0
100
AcDbCircle
10
-306.4059677124522
20
350.68708682050624
30
-7.0039529731502626e-11
40
12.699999999999999
210
-1.5268245602281903e-28
220
5.4634613281870237e-21
230
1
0
CIRCLE
5
129
100
AcDbEntity
8
0
100
AcDbCircle
10
-67.405967712452224
20
96.687086820506238
30
-7.0039529731502626e-11
40
1.7500000000000102
210
-1.5268245602281903e-28
220
5.4634613281870237e-21
230
1
0
CIRCLE
5
130
100
AcDbEntity
8
0
100
AcDbCircle
10
-369.72696771244853
20
325.68708851924129
30
-7.0039529731502626e-11
40
1.7500000000000102
210
-1.5268245602281903e-28
220
5.4634613281870237e-21
230
1
0
CIRCLE
5
131
100
AcDbEntity
8
0
100
AcDbCircle
10
-138.65596771245214
20
444.18708682050624
30
-7.0039529731502626e-11
40
1.7499999999999702
210
-1.5268245602281903e-28
220
5.4634613281870237e-21
230
1
0
CIRCLE
5
132
100
AcDbEntity
8
0
100
AcDbCircle
10
-316.15596771245214
20
444.18708682050629
30
-7.0039529731502626e-11
40
1.7500000000000402
210
-1.5268245602281903e-28
220
5.4634613281870237e-21
230
1
0
CIRCLE
5
133
100
AcDbEntity
8
0
100
AcDbCircle
10
-49.905967712452153
20
444.18708682050624
30
-7.0039529731502626e-11
40
1.7500000000000402
210
-1.5268245602281903e-28
220
5.4634613281870237e-21
230
1
0
CIRCLE
5
134
100
AcDbEntity
8
0
100
AcDbCircle
10
-7.4059677124522239
20
56.687086820506245
30
-7.0039529731502626e-11
40
1.7500000000000002
210
-1.5268245602281903e-28
220
5.4634613281870237e-21
230
1
0
CIRCLE
5
135
100
AcDbEntity
8
0
100
AcDbCircle
10
-7.4059677124522239
20
142.93708682050624
30
-7.0039529731502626e-11
40
1.7499999999999902
210
-1.5268245602281903e-28
220
5.4634613281870237e-21
230
1
0
CIRCLE
5
136
100
AcDbEntity
8
0
100
AcDbCircle
10
-7.4059677124521528
20
315.43708682050624
30
-7.0039529731502626e-11
40
1.7500000000000102
210
-1.5268245602281903e-28
220
5.4634613281870237e-21
230
1
0
CIRCLE
5
137
100
AcDbEntity
8
0
100
AcDbCircle
10
-447.40596771245214
20
315.43708682050629
30
-7.0039529731502626e-11
40
1.7500000000000102
210
-1.5268245602281903e-28
220
5.4634613281870237e-21
230
1
0
CIRCLE
5
138
100
AcDbEntity
8
0
100
AcDbCircle
10
-447.40596771245225
20
229.18708682050632
30
-7.0039529731502626e-11
40
1.7500000000000102
210
-1.5268245602281903e-28
220
5.4634613281870237e-21
230
1
0
CIRCLE
5
139
100
AcDbEntity
8
0
100
AcDbCircle
10
-227.40596771245214
20
444.18708682050629
30
-7.0039529731502626e-11
40
1.7500000000000402
210
-1.5268245602281903e-28
220
5.4634613281870237e-21
230
1
0
CIRCLE
5
140
100
AcDbEntity
8
0
100
AcDbCircle
10
-404.90596771245191
20
444.18708682050629
30
-7.0039529731502626e-11
40
1.7500000000000402
210
-1.5268245602281903e-28
220
5.4634613281870237e-21
230
1
0
CIRCLE
5
141
100
AcDbEntity
8
0
100
AcDbCircle
10
-447.40596771245214
20
401.68708682050629
30
-7.0039529731502626e-11
40
1.7499999999999702
210
-1.5268245602281903e-28
220
5.4634613281870237e-21
230
1
0
CIRCLE
5
142
100
AcDbEntity
8
0
100
AcDbCircle
10
-316.15596771245225
20
14.187086820506282
30
-7.0039529731502626e-11
40
1.7500000000000002
210
-1.5268245602281903e-28
220
5.4634613281870237e-21
230
1
0
CIRCLE
5
143
100
AcDbEntity
8
0
100
AcDbCircle
10
-138.65596771245222
20
14.187086820506261
30
-7.0039529731502626e-11
40
1.7499999999999802
210
-1.5268245602281903e-28
220
5.4634613281870237e-21
230
1
0
CIRCLE
5
144
100
AcDbEntity
8
0
100
AcDbCircle
10
-7.4059677124522239
20
229.18708682050624
30
-7.0039529731502626e-11
40
1.7500000000000102
210
-1.5268245602281903e-28
220
5.4634613281870237e-21
230
1
0
CIRCLE
5
145
100
AcDbEntity
8
0
100
AcDbCircle
10
-49.905967712452224
20
14.187086820506249
30
-7.0039529731502626e-11
40
1.7500000000000002
210
-1.5268245602281903e-28
220
5.4634613281870237e-21
230
1
0
CIRCLE
5
146
100
AcDbEntity
8
0
100
AcDbCircle
10
-227.40596771245222
20
14.187086820506272
30
-7.0039529731502626e-11
40
1.7499999999999902
210
-1.5268245602281903e-28
220
5.4634613281870237e-21
230
1
0
CIRCLE
5
147
100
AcDbEntity
8
0
100
AcDbCircle
10
-404.90596771245225
20
14.187086820506295
30
-7.0039529731502626e-11
40
1.7500000000000002
210
-1.5268245602281903e-28
220
5.4634613281870237e-21
230
1
0
CIRCLE
5
148
100
AcDbEntity
8
0
100
AcDbCircle
10
-447.40596771245225
20
56.687086820506295
30
-7.0039529731502626e-11
40
1.7500000000000102
210
-1.5268245602281903e-28
220
5.4634613281870237e-21
230
1
0
CIRCLE
5
149
100
AcDbEntity
8
0
100
AcDbCircle
10
-447.40596771245225
20
142.93708682050629
30
-7.0039529731502626e-11
40
1.7500000000000102
210
-1.5268245602281903e-28
220
5.4634613281870237e-21
230
1
0
CIRCLE
5
150
100
AcDbEntity
8
0
100
AcDbCircle
10
-7.4059677124521528
20
401.68708682050624
30
-7.0039529731502626e-11
40
1.7500000000000402
210
-1.5268245602281903e-28
220
5.4634613281870237e-21
230
1
0
ENDSEC
0
SECTION
2
OBJECTS
0
DICTIONARY
5
C
100
AcDbDictionary
3
ACAD_GROUP
350
D
3
ACAD_MLINESTYLE
350
17
0
DICTIONARY
5
D
100
AcDbDictionary
0
DICTIONARY
5
1A
330
C
100
AcDbDictionary
0
DICTIONARY
5
17
100
AcDbDictionary
0
ENDSEC
0
EOF
