0
SECTION
2
HEADER
9
$INSUNITS
70
4
9
$ACADVER
1
AC1014
9
$HANDSEED
5
FFFF
0
ENDSEC
0
SECTION
2
TABLES
0
TABLE
2
VPORT
5
8
100
AcDbSymbolTable
0
ENDTAB
0
TABLE
2
LTYPE
5
5
100
AcDbSymbolTable
0
LTYPE
5
14
100
AcDbSymbolTableRecord
100
AcDbLinetypeTableRecord
2
BYBLOCK
70
0
0
LTYPE
5
15
100
AcDbSymbolTableRecord
100
AcDbLinetypeTableRecord
2
BYLAYER
70
0
0
ENDTAB
0
TABLE
2
LAYER
5
2
100
AcDbSymbolTable
70
2
0
LAYER
5
50
100
AcDbSymbolTableRecord
100
AcDbLayerTableRecord
2
0
70
0
6
CONTINUOUS
0
ENDTAB
0
TABLE
2
STYLE
5
3
100
AcDbSymbolTable
70
1
0
STYLE
5
11
100
AcDbSymbolTableRecord
100
AcDbTextStyleTableRecord
2
STANDARD
70
0
0
ENDTAB
0
TABLE
2
VIEW
5
6
100
AcDbSymbolTable
70
0
0
ENDTAB
0
TABLE
2
UCS
5
7
100
AcDbSymbolTable
70
0
0
ENDTAB
0
TABLE
2
APPID
5
9
100
AcDbSymbolTable
70
2
0
APPID
5
12
100
AcDbSymbolTableRecord
100
AcDbRegAppTableRecord
2
ACAD
70
0
0
ENDTAB
0
TABLE
2
DIMSTYLE
5
A
100
AcDbSymbolTable
70
1
0
ENDTAB
0
TABLE
2
BLOCK_RECORD
5
1
100
AcDbSymbolTable
70
1
0
BLOCK_RECORD
5
1F
100
AcDbSymbolTableRecord
100
AcDbBlockTableRecord
2
*MODEL_SPACE
0
BLOCK_RECORD
5
1B
100
AcDbSymbolTableRecord
100
AcDbBlockTableRecord
2
*PAPER_SPACE
0
ENDTAB
0
ENDSEC
0
SECTION
2
BLOCKS
0
BLOCK
5
20
100
AcDbEntity
100
AcDbBlockBegin
2
*MODEL_SPACE
0
ENDBLK
5
21
100
AcDbEntity
100
AcDbBlockEnd
0
BLOCK
5
1C
100
AcDbEntity
100
AcDbBlockBegin
2
*PAPER_SPACE
0
ENDBLK
5
1D
100
AcDbEntity
100
AcDbBlockEnd
0
ENDSEC
0
SECTION
2
ENTITIES
0
LWPOLYLINE
5
100
100
AcDbEntity
8
0
100
AcDbPolyline
90
8
70
1
43
0.0
10
-454.90596925100385
20
446.68708659742884
42
-0.41421356237309503
10
-449.90596925100385
20
451.68708659742884
10
-4.9059692510038397
20
451.68708659742879
42
-0.41421356237309503
10
0.094030748996161151
20
446.68708659742879
10
0.094030748996091207
20
11.687086597428769
42
-0.41421356237309503
10
-4.9059692510039099
20
6.6870865974287677
10
-449.90596925100391
20
6.6870865974288218
42
-0.41421356237309503
10
-454.90596925100391
20
11.687086597428831
0
CIRCLE
5
101
100
AcDbEntity
8
0
100
AcDbCircle
10
-447.40596925100391
20
14.187086597428822
30
-5.6843418860808015e-13
40
3.5000000000000142
210
-2.3314683517129901e-15
220
2.3713060525918881e-46
230
1
0
CIRCLE
5
102
100
AcDbEntity
8
0
100
AcDbCircle
10
-7.4059692510039099
20
14.187086597428769
30
-5.5511151231257827e-14
40
3.5000000000000004
210
-1.4547001518207709e-28
220
1.4954945123888772e-46
230
1
0
CIRCLE
5
103
100
AcDbEntity
8
0
100
AcDbCircle
10
-192.26573641397454
20
183.18708829616381
30
-1.2878587085651816e-13
40
1.9999999999999929
210
1.221245327087527e-15
220
1.2881044535028016e-45
230
1
0
CIRCLE
5
104
100
AcDbEntity
8
0
100
AcDbCircle
10
-142.26573641397454
20
333.18708829616367
30
-2.9420910152566648e-13
40
1.9999999999999929
210
-5.5511151231272342e-16
220
-7.1531444471158529e-46
230
1
0
CIRCLE
5
105
100
AcDbEntity
8
0
100
AcDbCircle
10
-86.503735195715592
20
320.43708829616378
30
-2.2759572004815709e-13
40
1.9999999999999929
210
-5.5511151231272342e-16
220
-7.1531444471158529e-46
230
1
0
CIRCLE
5
106
100
AcDbEntity
8
0
100
AcDbCircle
10
-86.503735195715663
20
272.93708829616378
30
5.9952043329758453e-14
40
1.9999999999999929
210
-5.5511151231272342e-16
220
3.7944998054217804e-46
230
1
0
CIRCLE
5
107
100
AcDbEntity
8
0
100
AcDbCircle
10
-192.26573641397454
20
333.18708829616378
30
-3.8413716652030416e-13
40
1.9999999999999929
210
1.221245327087527e-15
220
-4.0324506532304885e-45
230
1
0
CIRCLE
5
108
100
AcDbEntity
8
0
100
AcDbCircle
10
-142.26573641397454
20
183.18708829616381
30
-3.8857805861880479e-14
40
1.9999999999999929
210
-5.5511151231272342e-16
220
3.7944998054217804e-46
230
1
0
CIRCLE
5
109
100
AcDbEntity
8
0
100
AcDbCircle
10
-67.405969251003839
20
356.68708659743072
30
-5.1070259132757201e-14
40
1.7499999999999702
210
-1.2211639416635296e-30
220
1.4954945123888772e-46
230
1
0
CIRCLE
5
110
100
AcDbEntity
8
0
100
AcDbCircle
10
-7.4059692510038388
20
444.18708659742879
30
-5.1070259132757201e-14
40
3.5000000000000102
210
-1.2211639416635296e-30
220
1.4954945123888772e-46
230
1
0
CIRCLE
5
111
100
AcDbEntity
8
0
100
AcDbCircle
10
-447.40596925100385
20
444.18708659742884
30
-5.1070259132757201e-14
40
3.5000000000000102
210
-1.2211639416635296e-30
220
1.4954945123888772e-46
230
1
0
CIRCLE
5
112
100
AcDbEntity
8
0
100
AcDbCircle
10
-387.40596925100391
20
96.687086597428831
30
-5.1070259132757201e-14
40
1.7500000000000102
210
-1.2211639416635296e-30
220
1.4954945123888772e-46
230
1
0
CIRCLE
5
113
100
AcDbEntity
8
0
100
AcDbCircle
10
-369.72696925099996
20
215.68708829616384
30
-5.1070259132757201e-14
40
1.7500000000000102
210
-1.2211639416635296e-30
220
1.4954945123888772e-46
230
1
0
CIRCLE
5
114
100
AcDbEntity
8
0
100
AcDbCircle
10
-254.72696925099984
20
215.68708829616381
30
-5.1070259132757201e-14
40
1.7500000000000102
210
-1.2211639416635296e-30
220
1.4954945123888772e-46
230
1
0
CIRCLE
5
115
100
AcDbEntity
8
0
100
AcDbCircle
10
-254.72696925099984
20
325.68708829616378
30
-5.1070259132757201e-14
40
1.7500000000000102
210
-1.2211639416635296e-30
220
1.4954945123888772e-46
230
1
0
CIRCLE
5
116
100
AcDbEntity
8
0
100
AcDbCircle
10
-254.7269692509999
20
123.68749415350281
30
-5.1070259132757201e-14
40
1.7500000000000102
210
-1.2211639416635296e-30
220
1.4954945123888772e-46
230
1
0
CIRCLE
5
117
100
AcDbEntity
8
0
100
AcDbCircle
10
-369.72696925099996
20
233.68708829616384
30
-5.1070259132757201e-14
40
1.7500000000000102
210
-1.2211639416635296e-30
220
1.4954945123888772e-46
230
1
0
CIRCLE
5
118
100
AcDbEntity
8
0
100
AcDbCircle
10
-387.40596925100385
20
356.68708659743083
30
-5.1070259132757201e-14
40
1.7499999999999702
210
-1.2211639416635296e-30
220
1.4954945123888772e-46
230
1
0
CIRCLE
5
119
100
AcDbEntity
8
0
100
AcDbCircle
10
-369.72696925099967
20
123.68708829616382
30
-5.1070259132757201e-14
40
1.7500000000000102
210
-1.2211639416635296e-30
220
1.4954945123888772e-46
230
1
0
CIRCLE
5
120
100
AcDbEntity
8
0
100
AcDbCircle
10
-254.72696925099984
20
233.68708829616381
30
-5.1070259132757201e-14
40
1.7500000000000102
210
-1.2211639416635296e-30
220
1.4954945123888772e-46
230
1
0
CIRCLE
5
121
100
AcDbEntity
8
0
100
AcDbCircle
10
-306.40596925100385
20
350.68708659742879
30
-5.1070259132757201e-14
40
12.699999999999999
210
-1.2211639416635296e-30
220
1.4954945123888772e-46
230
1
0
CIRCLE
5
122
100
AcDbEntity
8
0
100
AcDbCircle
10
-67.40596925100391
20
96.687086597428774
30
-5.1070259132757201e-14
40
1.7500000000000102
210
-1.2211639416635296e-30
220
1.4954945123888772e-46
230
1
0
CIRCLE
5
123
100
AcDbEntity
8
0
100
AcDbCircle
10
-369.72696925100024
20
325.68708829616384
30
-5.1070259132757201e-14
40
1.7500000000000102
210
-1.2211639416635296e-30
220
1.4954945123888772e-46
230
1
0
CIRCLE
5
124
100
AcDbEntity
8
0
100
AcDbCircle
10
-138.65596925100385
20
444.18708659742879
30
-5.1070259132757201e-14
40
1.7499999999999702
210
-1.2211639416635296e-30
220
1.4954945123888772e-46
230
1
0
CIRCLE
5
125
100
AcDbEntity
8
0
100
AcDbCircle
10
-316.15596925100385
20
444.18708659742884
30
-5.1070259132757201e-14
40
1.7500000000000402
210
-1.2211639416635296e-30
220
1.4954945123888772e-46
230
1
0
CIRCLE
5
126
100
AcDbEntity
8
0
100
AcDbCircle
10
-49.905969251003839
20
444.18708659742879
30
-5.1070259132757201e-14
40
1.7500000000000402
210
-1.2211639416635296e-30
220
1.4954945123888772e-46
230
1
0
CIRCLE
5
127
100
AcDbEntity
8
0
100
AcDbCircle
10
-7.4059692510039099
20
56.687086597428767
30
-5.1070259132757201e-14
40
1.7500000000000002
210
-1.2211639416635296e-30
220
1.4954945123888772e-46
230
1
0
CIRCLE
5
128
100
AcDbEntity
8
0
100
AcDbCircle
10
-7.4059692510039099
20
142.93708659742879
30
-5.1070259132757201e-14
40
1.7499999999999902
210
-1.2211639416635296e-30
220
1.4954945123888772e-46
230
1
0
CIRCLE
5
129
100
AcDbEntity
8
0
100
AcDbCircle
10
-7.4059692510038388
20
315.43708659742879
30
-5.1070259132757201e-14
40
1.7500000000000102
210
-1.2211639416635296e-30
220
1.4954945123888772e-46
230
1
0
CIRCLE
5
130
100
AcDbEntity
8
0
100
AcDbCircle
10
-447.40596925100385
20
315.43708659742884
30
-5.1070259132757201e-14
40
1.7500000000000102
210
-1.2211639416635296e-30
220
1.4954945123888772e-46
230
1
0
CIRCLE
5
131
100
AcDbEntity
8
0
100
AcDbCircle
10
-447.40596925100391
20
229.18708659742884
30
-5.1070259132757201e-14
40
1.7500000000000102
210
-1.2211639416635296e-30
220
1.4954945123888772e-46
230
1
0
CIRCLE
5
132
100
AcDbEntity
8
0
100
AcDbCircle
10
-227.40596925100385
20
444.18708659742884
30
-5.1070259132757201e-14
40
1.7500000000000402
210
-1.2211639416635296e-30
220
1.4954945123888772e-46
230
1
0
CIRCLE
5
133
100
AcDbEntity
8
0
100
AcDbCircle
10
-404.90596925100363
20
444.18708659742884
30
-5.1070259132757201e-14
40
1.7500000000000402
210
-1.2211639416635296e-30
220
1.4954945123888772e-46
230
1
0
CIRCLE
5
134
100
AcDbEntity
8
0
100
AcDbCircle
10
-447.40596925100385
20
401.68708659742884
30
-5.1070259132757201e-14
40
1.7499999999999702
210
-1.2211639416635296e-30
220
1.4954945123888772e-46
230
1
0
CIRCLE
5
135
100
AcDbEntity
8
0
100
AcDbCircle
10
-316.15596925100391
20
14.187086597428806
30
-5.1070259132757201e-14
40
1.7500000000000002
210
-1.2211639416635296e-30
220
1.4954945123888772e-46
230
1
0
CIRCLE
5
136
100
AcDbEntity
8
0
100
AcDbCircle
10
-138.65596925100391
20
14.187086597428785
30
-5.1070259132757201e-14
40
1.7499999999999802
210
-1.2211639416635296e-30
220
1.4954945123888772e-46
230
1
0
CIRCLE
5
137
100
AcDbEntity
8
0
100
AcDbCircle
10
-7.4059692510039099
20
229.18708659742876
30
-5.1070259132757201e-14
40
1.7500000000000102
210
-1.2211639416635296e-30
220
1.4954945123888772e-46
230
1
0
CIRCLE
5
138
100
AcDbEntity
8
0
100
AcDbCircle
10
-49.90596925100391
20
14.187086597428774
30
-5.1070259132757201e-14
40
1.7500000000000002
210
-1.2211639416635296e-30
220
1.4954945123888772e-46
230
1
0
CIRCLE
5
139
100
AcDbEntity
8
0
100
AcDbCircle
10
-227.40596925100391
20
14.187086597428795
30
-5.1070259132757201e-14
40
1.7499999999999902
210
-1.2211639416635296e-30
220
1.4954945123888772e-46
230
1
0
CIRCLE
5
140
100
AcDbEntity
8
0
100
AcDbCircle
10
-404.90596925100391
20
14.187086597428817
30
-5.1070259132757201e-14
40
1.7500000000000002
210
-1.2211639416635296e-30
220
1.4954945123888772e-46
230
1
0
CIRCLE
5
141
100
AcDbEntity
8
0
100
AcDbCircle
10
-447.40596925100391
20
56.687086597428824
30
-5.1070259132757201e-14
40
1.7500000000000102
210
-1.2211639416635296e-30
220
1.4954945123888772e-46
230
1
0
CIRCLE
5
142
100
AcDbEntity
8
0
100
AcDbCircle
10
-447.40596925100391
20
142.93708659742884
30
-5.1070259132757201e-14
40
1.7500000000000102
210
-1.2211639416635296e-30
220
1.4954945123888772e-46
230
1
0
CIRCLE
5
143
100
AcDbEntity
8
0
100
AcDbCircle
10
-7.4059692510038388
20
401.68708659742879
30
-5.1070259132757201e-14
40
1.7500000000000402
210
-1.2211639416635296e-30
220
1.4954945123888772e-46
230
1
0
ENDSEC
0
SECTION
2
OBJECTS
0
DICTIONARY
5
C
100
AcDbDictionary
3
ACAD_GROUP
350
D
3
ACAD_MLINESTYLE
350
17
0
DICTIONARY
5
D
100
AcDbDictionary
0
DICTIONARY
5
1A
330
C
100
AcDbDictionary
0
DICTIONARY
5
17
100
AcDbDictionary
0
ENDSEC
0
EOF
