0
SECTION
2
HEADER
9
$INSUNITS
70
4
9
$ACADVER
1
AC1014
9
$HANDSEED
5
FFFF
0
ENDSEC
0
SECTION
2
TABLES
0
TABLE
2
VPORT
5
8
100
AcDbSymbolTable
0
ENDTAB
0
TABLE
2
LTYPE
5
5
100
AcDbSymbolTable
0
LTYPE
5
14
100
AcDbSymbolTableRecord
100
AcDbLinetypeTableRecord
2
BYBLOCK
70
0
0
LTYPE
5
15
100
AcDbSymbolTableRecord
100
AcDbLinetypeTableRecord
2
BYLAYER
70
0
0
ENDTAB
0
TABLE
2
LAYER
5
2
100
AcDbSymbolTable
70
2
0
LAYER
5
50
100
AcDbSymbolTableRecord
100
AcDbLayerTableRecord
2
0
70
0
6
CONTINUOUS
0
ENDTAB
0
TABLE
2
STYLE
5
3
100
AcDbSymbolTable
70
1
0
STYLE
5
11
100
AcDbSymbolTableRecord
100
AcDbTextStyleTableRecord
2
STANDARD
70
0
0
ENDTAB
0
TABLE
2
VIEW
5
6
100
AcDbSymbolTable
70
0
0
ENDTAB
0
TABLE
2
UCS
5
7
100
AcDbSymbolTable
70
0
0
ENDTAB
0
TABLE
2
APPID
5
9
100
AcDbSymbolTable
70
2
0
APPID
5
12
100
AcDbSymbolTableRecord
100
AcDbRegAppTableRecord
2
ACAD
70
0
0
ENDTAB
0
TABLE
2
DIMSTYLE
5
A
100
AcDbSymbolTable
70
1
0
ENDTAB
0
TABLE
2
BLOCK_RECORD
5
1
100
AcDbSymbolTable
70
1
0
BLOCK_RECORD
5
1F
100
AcDbSymbolTableRecord
100
AcDbBlockTableRecord
2
*MODEL_SPACE
0
BLOCK_RECORD
5
1B
100
AcDbSymbolTableRecord
100
AcDbBlockTableRecord
2
*PAPER_SPACE
0
ENDTAB
0
ENDSEC
0
SECTION
2
BLOCKS
0
BLOCK
5
20
100
AcDbEntity
100
AcDbBlockBegin
2
*MODEL_SPACE
0
ENDBLK
5
21
100
AcDbEntity
100
AcDbBlockEnd
0
BLOCK
5
1C
100
AcDbEntity
100
AcDbBlockBegin
2
*PAPER_SPACE
0
ENDBLK
5
1D
100
AcDbEntity
100
AcDbBlockEnd
0
ENDSEC
0
SECTION
2
ENTITIES
0
LWPOLYLINE
5
100
100
AcDbEntity
8
0
100
AcDbPolyline
90
8
70
1
43
0.0
10
451.34998321533209
20
-449.99999999999994
42
-0.41421356237309503
10
446.34998321533214
20
-454.99999999999994
10
-288.65001678466786
20
-455.00000000000006
42
-0.41421356237309503
10
-293.65001678466786
20
-450.00000000000006
10
-293.65001678466797
20
-5.000000000000048
42
-0.41421356237309509
10
-288.65001678466797
20
-4.7117948872997814e-14
10
446.34998321533203
20
8.7707618945387367e-14
42
-0.41421356237309498
10
451.34998321533203
20
-4.9999999999999289
0
CIRCLE
5
101
100
AcDbEntity
8
0
100
AcDbCircle
10
-286.15001678466786
20
-447.50000000000006
30
0
40
3.5000000000000102
0
CIRCLE
5
102
100
AcDbEntity
8
0
100
AcDbCircle
10
-286.15001678466797
20
-7.5000000000000462
30
0
40
3.5000000000000604
0
CIRCLE
5
103
100
AcDbEntity
8
0
100
AcDbCircle
10
-243.65001678466797
20
-7.5000000000000391
30
0
40
1.7500000000000002
0
CIRCLE
5
104
100
AcDbEntity
8
0
100
AcDbCircle
10
293.84998321533203
20
-7.4999999999999396
30
0
40
1.7500000000000002
0
CIRCLE
5
105
100
AcDbEntity
8
0
100
AcDbCircle
10
-28.650023937224915
20
-447.5
30
0
40
1.7499999999999702
0
CIRCLE
5
106
100
AcDbEntity
8
0
100
AcDbCircle
10
443.84998321533203
20
-7.4999999999999121
30
0
40
3.5000000000000004
0
CIRCLE
5
107
100
AcDbEntity
8
0
100
AcDbCircle
10
186.34998321533203
20
-7.49999999999996
30
0
40
1.7500000000000002
0
CIRCLE
5
108
100
AcDbEntity
8
0
100
AcDbCircle
10
-286.15001678466786
20
-405.00000000000006
30
0
40
1.7500000000000402
0
CIRCLE
5
109
100
AcDbEntity
8
0
100
AcDbCircle
10
78.849983215332031
20
-7.4999999999999805
30
0
40
1.7499999999999902
0
CIRCLE
5
110
100
AcDbEntity
8
0
100
AcDbCircle
10
401.34998321533203
20
-7.4999999999999201
30
0
40
1.7500000000000002
0
CIRCLE
5
111
100
AcDbEntity
8
0
100
AcDbCircle
10
443.84998321533209
20
-447.49999999999994
30
0
40
3.5000000000000102
0
CIRCLE
5
112
100
AcDbEntity
8
0
100
AcDbCircle
10
186.34998321533209
20
-447.5
30
0
40
1.7499999999999702
0
CIRCLE
5
113
100
AcDbEntity
8
0
100
AcDbCircle
10
-286.15001678466797
20
-227.50000000000003
30
0
40
1.7500000000000102
0
CIRCLE
5
114
100
AcDbEntity
8
0
100
AcDbCircle
10
-286.15001678466797
20
-316.25000000000006
30
0
40
1.7500000000000102
0
CIRCLE
5
115
100
AcDbEntity
8
0
100
AcDbCircle
10
-136.150023937225
20
-447.50000000000006
30
0
40
1.7499999999999702
0
CIRCLE
5
116
100
AcDbEntity
8
0
100
AcDbCircle
10
443.84998321533209
20
-404.99999999999994
30
0
40
1.7499999999999702
0
CIRCLE
5
117
100
AcDbEntity
8
0
100
AcDbCircle
10
78.849983215332102
20
-447.5
30
0
40
1.7499999999999702
0
CIRCLE
5
118
100
AcDbEntity
8
0
100
AcDbCircle
10
-243.65001678466783
20
-447.50000000000006
30
0
40
1.7500000000000402
0
CIRCLE
5
119
100
AcDbEntity
8
0
100
AcDbCircle
10
-28.650023937224987
20
-7.4999999999999991
30
0
40
1.7499999999999902
0
CIRCLE
5
120
100
AcDbEntity
8
0
100
AcDbCircle
10
443.84998321533209
20
-227.49999999999989
30
0
40
1.7500000000000102
0
CIRCLE
5
121
100
AcDbEntity
8
0
100
AcDbCircle
10
401.34998321533192
20
-447.49999999999994
30
0
40
1.7500000000000402
0
CIRCLE
5
122
100
AcDbEntity
8
0
100
AcDbCircle
10
443.84998321533209
20
-316.24999999999989
30
0
40
1.7500000000000102
0
CIRCLE
5
123
100
AcDbEntity
8
0
100
AcDbCircle
10
-136.15002393722506
20
-7.5000000000000187
30
0
40
1.7500000000000302
0
CIRCLE
5
124
100
AcDbEntity
8
0
100
AcDbCircle
10
443.84998321533203
20
-138.74999999999991
30
0
40
1.7500000000000102
0
CIRCLE
5
125
100
AcDbEntity
8
0
100
AcDbCircle
10
293.84998321533209
20
-447.49999999999994
30
0
40
1.7500000000000402
0
CIRCLE
5
126
100
AcDbEntity
8
0
100
AcDbCircle
10
443.84998321533203
20
-49.999999999999915
30
0
40
1.7500000000000102
0
CIRCLE
5
127
100
AcDbEntity
8
0
100
AcDbCircle
10
-286.15001678466797
20
-50.000000000000043
30
0
40
1.7500000000000002
0
CIRCLE
5
128
100
AcDbEntity
8
0
100
AcDbCircle
10
-286.15001678466797
20
-138.75000000000006
30
0
40
1.7499999999999902
0
ENDSEC
0
SECTION
2
OBJECTS
0
DICTIONARY
5
C
100
AcDbDictionary
3
ACAD_GROUP
350
D
3
ACAD_MLINESTYLE
350
17
0
DICTIONARY
5
D
100
AcDbDictionary
0
DICTIONARY
5
1A
330
C
100
AcDbDictionary
0
DICTIONARY
5
17
100
AcDbDictionary
0
ENDSEC
0
EOF
