0
SECTION
2
HEADER
9
$INSUNITS
70
4
9
$ACADVER
1
AC1014
9
$HANDSEED
5
FFFF
0
ENDSEC
0
SECTION
2
TABLES
0
TABLE
2
VPORT
5
8
100
AcDbSymbolTable
0
ENDTAB
0
TABLE
2
LTYPE
5
5
100
AcDbSymbolTable
0
LTYPE
5
14
100
AcDbSymbolTableRecord
100
AcDbLinetypeTableRecord
2
BYBLOCK
70
0
0
LTYPE
5
15
100
AcDbSymbolTableRecord
100
AcDbLinetypeTableRecord
2
BYLAYER
70
0
0
ENDTAB
0
TABLE
2
LAYER
5
2
100
AcDbSymbolTable
70
2
0
LAYER
5
50
100
AcDbSymbolTableRecord
100
AcDbLayerTableRecord
2
0
70
0
6
CONTINUOUS
0
ENDTAB
0
TABLE
2
STYLE
5
3
100
AcDbSymbolTable
70
1
0
STYLE
5
11
100
AcDbSymbolTableRecord
100
AcDbTextStyleTableRecord
2
STANDARD
70
0
0
ENDTAB
0
TABLE
2
VIEW
5
6
100
AcDbSymbolTable
70
0
0
ENDTAB
0
TABLE
2
UCS
5
7
100
AcDbSymbolTable
70
0
0
ENDTAB
0
TABLE
2
APPID
5
9
100
AcDbSymbolTable
70
2
0
APPID
5
12
100
AcDbSymbolTableRecord
100
AcDbRegAppTableRecord
2
ACAD
70
0
0
ENDTAB
0
TABLE
2
DIMSTYLE
5
A
100
AcDbSymbolTable
70
1
0
ENDTAB
0
TABLE
2
BLOCK_RECORD
5
1
100
AcDbSymbolTable
70
1
0
BLOCK_RECORD
5
1F
100
AcDbSymbolTableRecord
100
AcDbBlockTableRecord
2
*MODEL_SPACE
0
BLOCK_RECORD
5
1B
100
AcDbSymbolTableRecord
100
AcDbBlockTableRecord
2
*PAPER_SPACE
0
ENDTAB
0
ENDSEC
0
SECTION
2
BLOCKS
0
BLOCK
5
20
100
AcDbEntity
100
AcDbBlockBegin
2
*MODEL_SPACE
0
ENDBLK
5
21
100
AcDbEntity
100
AcDbBlockEnd
0
BLOCK
5
1C
100
AcDbEntity
100
AcDbBlockBegin
2
*PAPER_SPACE
0
ENDBLK
5
1D
100
AcDbEntity
100
AcDbBlockEnd
0
ENDSEC
0
SECTION
2
ENTITIES
0
LWPOLYLINE
5
100
100
AcDbEntity
8
0
100
AcDbPolyline
90
8
70
1
43
0.0
10
490
20
-288.65000000000003
42
-0.41421356237309503
10
485
20
-293.65000000000003
10
5
20
-293.65000000000003
42
-0.41421356237309503
10
0
20
-288.65000000000009
10
0
20
446.34999999999991
42
-0.41421356237309503
10
5
20
451.34999999999991
10
485
20
451.34999999999991
42
-0.41421356237309503
10
490
20
446.34999999999991
0
LWPOLYLINE
5
101
100
AcDbEntity
8
0
100
AcDbPolyline
90
8
70
1
43
0.0
10
40
20
391.34999999999991
10
40
20
-233.65000000000006
42
0.41421356237309503
10
50
20
-243.65000000000006
10
440
20
-243.65000000000006
42
0.41421356237309503
10
450
20
-233.65000000000009
10
450
20
391.34999999999991
42
0.41421356237309503
10
440
20
401.34999999999991
10
50
20
401.34999999999991
42
0.41421356237309503
0
CIRCLE
5
102
100
AcDbEntity
8
0
100
AcDbCircle
10
7.5
20
443.84999999999991
30
0
40
3.5000000000000302
0
CIRCLE
5
103
100
AcDbEntity
8
0
100
AcDbCircle
10
7.5
20
-286.15000000000003
30
0
40
3.5000000000000004
0
CIRCLE
5
104
100
AcDbEntity
8
0
100
AcDbCircle
10
482.5
20
443.84999999999991
30
0
40
3.5000000000000102
0
CIRCLE
5
105
100
AcDbEntity
8
0
100
AcDbCircle
10
482.5
20
-286.15000000000003
30
0
40
3.5000000000000102
0
CIRCLE
5
106
100
AcDbEntity
8
0
100
AcDbCircle
10
7.5
20
-243.65000000000006
30
0
40
1.7500000000000002
0
CIRCLE
5
107
100
AcDbEntity
8
0
100
AcDbCircle
10
50
20
-286.15000000000003
30
0
40
1.7500000000000102
0
CIRCLE
5
108
100
AcDbEntity
8
0
100
AcDbCircle
10
245
20
-286.15000000000003
30
0
40
1.7500000000000102
0
CIRCLE
5
109
100
AcDbEntity
8
0
100
AcDbCircle
10
342.5
20
-286.15000000000003
30
0
40
1.7499999999999702
0
CIRCLE
5
110
100
AcDbEntity
8
0
100
AcDbCircle
10
147.5
20
-286.15000000000003
30
0
40
1.7500000000000102
0
CIRCLE
5
111
100
AcDbEntity
8
0
100
AcDbCircle
10
482.5
20
401.34999999999991
30
0
40
1.7500000000000402
0
CIRCLE
5
112
100
AcDbEntity
8
0
100
AcDbCircle
10
482.5
20
-28.650000000000055
30
0
40
1.7499999999999702
0
CIRCLE
5
113
100
AcDbEntity
8
0
100
AcDbCircle
10
7.5
20
293.85000715255705
30
0
40
1.7500000000000102
0
CIRCLE
5
114
100
AcDbEntity
8
0
100
AcDbCircle
10
482.5
20
186.35000715255697
30
0
40
1.7499999999999702
0
CIRCLE
5
115
100
AcDbEntity
8
0
100
AcDbCircle
10
482.5
20
-243.64999999999984
30
0
40
1.7500000000000402
0
CIRCLE
5
116
100
AcDbEntity
8
0
100
AcDbCircle
10
482.5
20
293.85000715255705
30
0
40
1.7499999999999702
0
CIRCLE
5
117
100
AcDbEntity
8
0
100
AcDbCircle
10
7.5
20
-28.650000000000055
30
0
40
1.7500000000000102
0
CIRCLE
5
118
100
AcDbEntity
8
0
100
AcDbCircle
10
440
20
-286.15000000000003
30
0
40
1.7499999999999702
0
CIRCLE
5
119
100
AcDbEntity
8
0
100
AcDbCircle
10
482.5
20
-136.15000000000006
30
0
40
1.7500000000000402
0
CIRCLE
5
120
100
AcDbEntity
8
0
100
AcDbCircle
10
7.5
20
186.35000715255697
30
0
40
1.7500000000000202
0
CIRCLE
5
121
100
AcDbEntity
8
0
100
AcDbCircle
10
482.5
20
78.849999999999937
30
0
40
1.7499999999999702
0
CIRCLE
5
122
100
AcDbEntity
8
0
100
AcDbCircle
10
7.5
20
-136.15000000000006
30
0
40
1.7500000000000002
0
CIRCLE
5
123
100
AcDbEntity
8
0
100
AcDbCircle
10
147.5
20
443.84999999999991
30
0
40
1.7499999999999902
0
CIRCLE
5
124
100
AcDbEntity
8
0
100
AcDbCircle
10
342.5
20
443.84999999999991
30
0
40
1.7500000000000402
0
CIRCLE
5
125
100
AcDbEntity
8
0
100
AcDbCircle
10
245
20
443.84999999999991
30
0
40
1.7500000000000102
0
CIRCLE
5
126
100
AcDbEntity
8
0
100
AcDbCircle
10
50
20
443.84999999999991
30
0
40
1.7500000000000002
0
CIRCLE
5
127
100
AcDbEntity
8
0
100
AcDbCircle
10
7.5
20
78.849999999999937
30
0
40
1.7499999999999902
0
CIRCLE
5
128
100
AcDbEntity
8
0
100
AcDbCircle
10
7.5
20
401.34999999999991
30
0
40
1.7500000000000002
0
CIRCLE
5
129
100
AcDbEntity
8
0
100
AcDbCircle
10
440
20
443.84999999999991
30
0
40
1.7500000000000402
0
ENDSEC
0
SECTION
2
OBJECTS
0
DICTIONARY
5
C
100
AcDbDictionary
3
ACAD_GROUP
350
D
3
ACAD_MLINESTYLE
350
17
0
DICTIONARY
5
D
100
AcDbDictionary
0
DICTIONARY
5
1A
330
C
100
AcDbDictionary
0
DICTIONARY
5
17
100
AcDbDictionary
0
ENDSEC
0
EOF
