0
SECTION
2
HEADER
9
$INSUNITS
70
4
9
$ACADVER
1
AC1014
9
$HANDSEED
5
FFFF
0
ENDSEC
0
SECTION
2
TABLES
0
TABLE
2
VPORT
5
8
100
AcDbSymbolTable
0
ENDTAB
0
TABLE
2
LTYPE
5
5
100
AcDbSymbolTable
0
LTYPE
5
14
100
AcDbSymbolTableRecord
100
AcDbLinetypeTableRecord
2
BYBLOCK
70
0
0
LTYPE
5
15
100
AcDbSymbolTableRecord
100
AcDbLinetypeTableRecord
2
BYLAYER
70
0
0
ENDTAB
0
TABLE
2
LAYER
5
2
100
AcDbSymbolTable
70
2
0
LAYER
5
50
100
AcDbSymbolTableRecord
100
AcDbLayerTableRecord
2
0
70
0
6
CONTINUOUS
0
ENDTAB
0
TABLE
2
STYLE
5
3
100
AcDbSymbolTable
70
1
0
STYLE
5
11
100
AcDbSymbolTableRecord
100
AcDbTextStyleTableRecord
2
STANDARD
70
0
0
ENDTAB
0
TABLE
2
VIEW
5
6
100
AcDbSymbolTable
70
0
0
ENDTAB
0
TABLE
2
UCS
5
7
100
AcDbSymbolTable
70
0
0
ENDTAB
0
TABLE
2
APPID
5
9
100
AcDbSymbolTable
70
2
0
APPID
5
12
100
AcDbSymbolTableRecord
100
AcDbRegAppTableRecord
2
ACAD
70
0
0
ENDTAB
0
TABLE
2
DIMSTYLE
5
A
100
AcDbSymbolTable
70
1
0
ENDTAB
0
TABLE
2
BLOCK_RECORD
5
1
100
AcDbSymbolTable
70
1
0
BLOCK_RECORD
5
1F
100
AcDbSymbolTableRecord
100
AcDbBlockTableRecord
2
*MODEL_SPACE
0
BLOCK_RECORD
5
1B
100
AcDbSymbolTableRecord
100
AcDbBlockTableRecord
2
*PAPER_SPACE
0
ENDTAB
0
ENDSEC
0
SECTION
2
BLOCKS
0
BLOCK
5
20
100
AcDbEntity
100
AcDbBlockBegin
2
*MODEL_SPACE
0
ENDBLK
5
21
100
AcDbEntity
100
AcDbBlockEnd
0
BLOCK
5
1C
100
AcDbEntity
100
AcDbBlockBegin
2
*PAPER_SPACE
0
ENDBLK
5
1D
100
AcDbEntity
100
AcDbBlockEnd
0
ENDSEC
0
SECTION
2
ENTITIES
0
LWPOLYLINE
5
100
100
AcDbEntity
8
0
100
AcDbPolyline
90
8
70
1
43
0.0
10
4.9999999999661791
20
-454.99999999999989
42
-0.41421356237309503
10
-3.3821834222180769e-11
20
-449.99999999999989
10
-3.3821834222180769e-11
20
-4.9999999999998588
42
-0.41421356237309503
10
4.9999999999661782
20
1.4210854715202004e-13
10
484.99999999996618
20
1.4210854715202004e-13
42
-0.41421356237309503
10
489.99999999996618
20
-4.9999999999998579
10
489.99999999996618
20
-449.99999999999989
42
-0.41421356237309503
10
484.99999999996618
20
-454.99999999999989
0
CIRCLE
5
101
100
AcDbEntity
8
0
100
AcDbCircle
10
482.49999999996618
20
-7.4999999999998579
30
1.9984014443252818e-14
40
3.5000000000000004
0
CIRCLE
5
102
100
AcDbEntity
8
0
100
AcDbCircle
10
482.49999999996618
20
-447.49999999999989
30
1.9984014443252818e-14
40
3.75
0
CIRCLE
5
103
100
AcDbEntity
8
0
100
AcDbCircle
10
7.4999999999661782
20
-7.4999999999998579
30
1.9984014443252818e-14
40
3.5000000000000102
0
CIRCLE
5
104
100
AcDbEntity
8
0
100
AcDbCircle
10
7.4999999999661782
20
-447.49999999999989
30
1.9984014443252818e-14
40
3.5000000000000102
0
CIRCLE
5
105
100
AcDbEntity
8
0
100
AcDbCircle
10
19.393252921901194
20
-351.91806891872091
30
1.9984014443252818e-14
40
1.7499999999999702
0
CIRCLE
5
106
100
AcDbEntity
8
0
100
AcDbCircle
10
439.39325292190074
20
-224.41806891871687
30
1.9984014443252818e-14
40
1.7499999999999902
0
CIRCLE
5
107
100
AcDbEntity
8
0
100
AcDbCircle
10
50.393252921901137
20
-96.875127969915837
30
1.9984014443252818e-14
40
1.7500000000000402
0
CIRCLE
5
108
100
AcDbEntity
8
0
100
AcDbCircle
10
50.393252921901137
20
-127.87512796991585
30
1.9984014443252818e-14
40
1.7500000000000402
0
CIRCLE
5
109
100
AcDbEntity
8
0
100
AcDbCircle
10
470.3932529219008
20
-224.41806891871687
30
1.9984014443252818e-14
40
1.7500000000000002
0
CIRCLE
5
110
100
AcDbEntity
8
0
100
AcDbCircle
10
19.393252921901194
20
-382.91806891872125
30
1.9984014443252818e-14
40
1.7500000000000402
0
CIRCLE
5
111
100
AcDbEntity
8
0
100
AcDbCircle
10
50.393252921901137
20
-351.91806891872091
30
1.9984014443252818e-14
40
1.7499999999999702
0
CIRCLE
5
112
100
AcDbEntity
8
0
100
AcDbCircle
10
439.39325292190074
20
-255.41806891871687
30
1.9984014443252818e-14
40
1.7500000000000102
0
CIRCLE
5
113
100
AcDbEntity
8
0
100
AcDbCircle
10
19.393252921901194
20
-96.875127969915837
30
1.9984014443252818e-14
40
1.7499999999999702
0
CIRCLE
5
114
100
AcDbEntity
8
0
100
AcDbCircle
10
19.393252921901194
20
-127.87512796991585
30
1.9984014443252818e-14
40
1.7499999999999702
0
CIRCLE
5
115
100
AcDbEntity
8
0
100
AcDbCircle
10
470.3932529219008
20
-255.41806891871687
30
1.9984014443252818e-14
40
1.7500000000000002
0
CIRCLE
5
116
100
AcDbEntity
8
0
100
AcDbCircle
10
50.393252921901137
20
-382.91806891872125
30
1.9984014443252818e-14
40
1.7500000000000402
0
CIRCLE
5
117
100
AcDbEntity
8
0
100
AcDbCircle
10
34.999771612211177
20
-112.20221099552383
30
1.9984014443252818e-14
40
12.5
0
CIRCLE
5
118
100
AcDbEntity
8
0
100
AcDbCircle
10
34.999849107937138
20
-367.24515194432939
30
1.9984014443252818e-14
40
12.5
0
CIRCLE
5
119
100
AcDbEntity
8
0
100
AcDbCircle
10
454.99989609515495
20
-239.74515194432485
30
1.9984014443252818e-14
40
12.5
0
CIRCLE
5
120
100
AcDbEntity
8
0
100
AcDbCircle
10
7.4999999999661782
20
-316.24999999999989
30
1.9984014443252818e-14
40
1.7500000000000402
0
CIRCLE
5
121
100
AcDbEntity
8
0
100
AcDbCircle
10
7.4999999999661782
20
-227.49999999999989
30
1.9984014443252818e-14
40
1.7500000000000402
0
CIRCLE
5
122
100
AcDbEntity
8
0
100
AcDbCircle
10
244.99999999996618
20
-447.49999999999989
30
1.9984014443252818e-14
40
1.7500000000000102
0
CIRCLE
5
123
100
AcDbEntity
8
0
100
AcDbCircle
10
7.4999999999661782
20
-138.74999999999989
30
1.9984014443252818e-14
40
1.7499999999999702
0
CIRCLE
5
124
100
AcDbEntity
8
0
100
AcDbCircle
10
7.4999999999661782
20
-49.999999999999858
30
1.9984014443252818e-14
40
1.7500000000000402
0
CIRCLE
5
125
100
AcDbEntity
8
0
100
AcDbCircle
10
147.49999999996618
20
-447.49999999999989
30
1.9984014443252818e-14
40
1.7499999999999702
0
CIRCLE
5
126
100
AcDbEntity
8
0
100
AcDbCircle
10
482.49999999996618
20
-404.99999999999989
30
1.9984014443252818e-14
40
1.7500000000000002
0
CIRCLE
5
127
100
AcDbEntity
8
0
100
AcDbCircle
10
439.99999999996618
20
-447.49999999999989
30
1.9984014443252818e-14
40
1.7500000000000102
0
CIRCLE
5
128
100
AcDbEntity
8
0
100
AcDbCircle
10
49.999999999966178
20
-7.4999999999998579
30
1.9984014443252818e-14
40
1.7500000000000402
0
CIRCLE
5
129
100
AcDbEntity
8
0
100
AcDbCircle
10
482.49999999996618
20
-49.999999999999858
30
1.9984014443252818e-14
40
1.7500000000000002
0
CIRCLE
5
130
100
AcDbEntity
8
0
100
AcDbCircle
10
49.999999999966178
20
-447.49999999999994
30
1.9984014443252818e-14
40
1.7499999999999702
0
CIRCLE
5
131
100
AcDbEntity
8
0
100
AcDbCircle
10
7.4999999999661782
20
-404.99999999999972
30
1.9984014443252818e-14
40
1.7500000000000402
0
CIRCLE
5
132
100
AcDbEntity
8
0
100
AcDbCircle
10
482.49999999996618
20
-316.24999999999989
30
1.9984014443252818e-14
40
1.7500000000000002
0
CIRCLE
5
133
100
AcDbEntity
8
0
100
AcDbCircle
10
342.49999999996618
20
-447.49999999999989
30
1.9984014443252818e-14
40
1.7500000000000102
0
CIRCLE
5
134
100
AcDbEntity
8
0
100
AcDbCircle
10
439.99999999996618
20
-7.4999999999998579
30
1.9984014443252818e-14
40
1.7500000000000002
0
CIRCLE
5
135
100
AcDbEntity
8
0
100
AcDbCircle
10
342.49999999996618
20
-7.4999999999998579
30
1.9984014443252818e-14
40
1.7499999999999902
0
CIRCLE
5
136
100
AcDbEntity
8
0
100
AcDbCircle
10
244.99999999996615
20
-7.4999999999998579
30
1.9984014443252818e-14
40
1.7500000000000102
0
CIRCLE
5
137
100
AcDbEntity
8
0
100
AcDbCircle
10
147.49999999996618
20
-7.4999999999998579
30
1.9984014443252818e-14
40
1.7500000000000402
0
CIRCLE
5
138
100
AcDbEntity
8
0
100
AcDbCircle
10
482.49999999996618
20
-138.74999999999986
30
1.9984014443252818e-14
40
1.7499999999999802
0
CIRCLE
5
139
100
AcDbEntity
8
0
100
AcDbCircle
10
482.49999999996618
20
-227.49999999999986
30
1.9984014443252818e-14
40
1.7499999999999902
0
ENDSEC
0
SECTION
2
OBJECTS
0
DICTIONARY
5
C
100
AcDbDictionary
3
ACAD_GROUP
350
D
3
ACAD_MLINESTYLE
350
17
0
DICTIONARY
5
D
100
AcDbDictionary
0
DICTIONARY
5
1A
330
C
100
AcDbDictionary
0
DICTIONARY
5
17
100
AcDbDictionary
0
ENDSEC
0
EOF
